<svg width="35" height="35" viewBox="0 0 35 35" fill="none" xmlns="http://www.w3.org/2000/svg">
<path d="M17.5 2.8125C24.231 2.8125 29.6875 8.26903 29.6875 15C29.6875 20.1496 26.0693 25.7616 18.9252 31.8973C18.1055 32.6014 16.8945 32.6014 16.0715 31.8945L15.5993 31.4852C8.7714 25.5111 5.3125 20.0348 5.3125 15C5.3125 8.26903 10.769 2.8125 17.5 2.8125ZM17.5 4.6875C11.8046 4.6875 7.1875 9.30456 7.1875 15C7.1875 19.3776 10.373 24.421 16.8307 30.0712L17.2964 30.4749C17.4135 30.5755 17.5865 30.5755 17.7036 30.4749C24.4737 24.6604 27.8125 19.4817 27.8125 15C27.8125 9.30456 23.1954 4.6875 17.5 4.6875ZM17.5 10.3125C20.0888 10.3125 22.1875 12.4112 22.1875 15C22.1875 17.5888 20.0888 19.6875 17.5 19.6875C14.9112 19.6875 12.8125 17.5888 12.8125 15C12.8125 12.4112 14.9112 10.3125 17.5 10.3125ZM17.5 12.1875C15.9467 12.1875 14.6875 13.4467 14.6875 15C14.6875 16.5533 15.9467 17.8125 17.5 17.8125C19.0533 17.8125 20.3125 16.5533 20.3125 15C20.3125 13.4467 19.0533 12.1875 17.5 12.1875Z" fill="#212121"/>
</svg>
