<svg width="20" height="20" viewBox="0 0 20 20" fill="none" xmlns="http://www.w3.org/2000/svg">
<path d="M15.1308 14.0685L14.1417 15.0468C13.4126 15.7624 12.4666 16.6823 11.3034 17.8069C10.5766 18.5097 9.42339 18.5096 8.69663 17.8067L5.78738 14.9768C5.42174 14.6178 5.11569 14.3151 4.86915 14.0685C2.03548 11.2349 2.03548 6.64057 4.86915 3.8069C7.70283 0.973222 12.2971 0.973222 15.1308 3.8069C17.9645 6.64057 17.9645 11.2349 15.1308 14.0685ZM12.0835 9.16664C12.0835 8.01595 11.1507 7.08314 9.99998 7.08314C8.84929 7.08314 7.91648 8.01595 7.91648 9.16664C7.91648 10.3173 8.84929 11.2501 9.99998 11.2501C11.1507 11.2501 12.0835 10.3173 12.0835 9.16664Z" fill="#FF5E14"/>
</svg>
