<svg width="85" height="40" viewBox="0 0 85 40" fill="none" xmlns="http://www.w3.org/2000/svg">
<g clip-path="url(#clip0_1_9459)">
<path d="M0 35V7.8125C0 6.25918 1.25918 5 2.8125 5H19.6875C21.2408 5 22.5 6.25918 22.5 7.8125V35L11.25 28.4375L0 35Z" fill="#6F6D71"/>
</g>
<path d="M55.7635 20C55.7635 21.7751 54.3244 23.2143 52.5492 23.2143C50.774 23.2143 49.335 21.7751 49.335 20C49.335 18.2248 50.774 16.7857 52.5492 16.7857C54.3244 16.7857 55.7635 18.2248 55.7635 20Z" fill="#6F6D71"/>
<path d="M67.1922 20C67.1922 21.7751 65.7531 23.2143 63.978 23.2143C62.2027 23.2143 60.7637 21.7751 60.7637 20C60.7637 18.2248 62.2027 16.7857 63.978 16.7857C65.7531 16.7857 67.1922 18.2248 67.1922 20Z" fill="#6F6D71"/>
<path d="M75.4062 23.2143C77.1813 23.2143 78.6205 21.7751 78.6205 20C78.6205 18.2248 77.1813 16.7857 75.4062 16.7857C73.6309 16.7857 72.1919 18.2248 72.1919 20C72.1919 21.7751 73.6309 23.2143 75.4062 23.2143Z" fill="#6F6D71"/>
<defs>
<clipPath id="clip0_1_9459">
<rect width="22.5" height="30" fill="white" transform="translate(0 5)"/>
</clipPath>
</defs>
</svg>
