<svg width="64" height="64" viewBox="0 0 64 64" fill="none" xmlns="http://www.w3.org/2000/svg">
<path d="M18.9961 26.0263C17.3358 26.7501 15.5027 27.1515 13.5758 27.1515C6.0781 27.1515 0 21.0734 0 13.5758C0 6.07807 6.0781 0 13.5758 0C21.0735 0 27.1517 6.07807 27.1517 13.5758C27.1517 15.5026 26.7502 17.3358 26.0264 18.9961L45.0041 37.9737C46.6643 37.2499 48.4974 36.8485 50.4242 36.8485C57.9219 36.8485 64 42.9266 64 50.4242C64 57.9219 57.9219 64 50.4242 64C42.9265 64 36.8484 57.9219 36.8484 50.4242C36.8484 48.4973 37.2498 46.6641 37.9737 45.0038L18.9961 26.0263Z" fill="#FF5E14"/>
<path d="M24.5655 50.4242C24.5655 56.4938 19.6451 61.4141 13.5755 61.4141C7.50593 61.4141 2.58556 56.4938 2.58556 50.4242C2.58556 44.3547 7.50593 39.4343 13.5755 39.4343C19.6451 39.4343 24.5655 44.3547 24.5655 50.4242Z" fill="#FF5E14"/>
<path d="M50.4242 24.5657C56.4938 24.5657 61.4141 19.6453 61.4141 13.5758C61.4141 7.5062 56.4938 2.58586 50.4242 2.58586C44.3546 2.58586 39.4342 7.5062 39.4342 13.5758C39.4342 19.6453 44.3546 24.5657 50.4242 24.5657Z" fill="#FF5E14"/>
</svg>
