<svg width="73" height="25" viewBox="0 0 73 25" fill="none" xmlns="http://www.w3.org/2000/svg">
<g clip-path="url(#clip0_1_8946)">
<path d="M25.7812 0H2.34375C1.0498 0 0 1.0498 0 2.34375V17.9688C0 19.2627 1.0498 20.3125 2.34375 20.3125H11.7188L10.9375 22.6562H7.42188C6.77246 22.6562 6.25 23.1787 6.25 23.8281C6.25 24.4775 6.77246 25 7.42188 25H20.7031C21.3525 25 21.875 24.4775 21.875 23.8281C21.875 23.1787 21.3525 22.6562 20.7031 22.6562H17.1875L16.4062 20.3125H25.7812C27.0752 20.3125 28.125 19.2627 28.125 17.9688V2.34375C28.125 1.0498 27.0752 0 25.7812 0ZM25 17.1875H3.125V3.125H25V17.1875Z" fill="#FEFEFE"/>
</g>
<g clip-path="url(#clip1_1_8946)">
<path d="M70.4062 0H59.4688C58.1748 0 57.125 1.0498 57.125 2.34375V22.6562C57.125 23.9502 58.1748 25 59.4688 25H70.4062C71.7002 25 72.75 23.9502 72.75 22.6562V2.34375C72.75 1.0498 71.7002 0 70.4062 0ZM64.9375 23.4375C64.0732 23.4375 63.375 22.7393 63.375 21.875C63.375 21.0107 64.0732 20.3125 64.9375 20.3125C65.8018 20.3125 66.5 21.0107 66.5 21.875C66.5 22.7393 65.8018 23.4375 64.9375 23.4375ZM70.4062 18.1641C70.4062 18.4863 70.1426 18.75 69.8203 18.75H60.0547C59.7324 18.75 59.4688 18.4863 59.4688 18.1641V2.92969C59.4688 2.60742 59.7324 2.34375 60.0547 2.34375H69.8203C70.1426 2.34375 70.4062 2.60742 70.4062 2.92969V18.1641Z" fill="#FEFEFE"/>
</g>
<defs>
<clipPath id="clip0_1_8946">
<rect width="28.125" height="25" fill="white"/>
</clipPath>
<clipPath id="clip1_1_8946">
<rect width="15.625" height="25" fill="white" transform="translate(57.125)"/>
</clipPath>
</defs>
</svg>
