<svg width="1170" height="488" viewBox="0 0 1170 488" fill="none" xmlns="http://www.w3.org/2000/svg">
<mask id="mask0_1_4056" style="mask-type:alpha" maskUnits="userSpaceOnUse" x="0" y="0" width="1170" height="488">
<rect width="1170" height="488" fill="#FF5E14"/>
</mask>
<g mask="url(#mask0_1_4056)">
<g opacity="0.08">
<path fill-rule="evenodd" clip-rule="evenodd" d="M1160.3 24.0545V-14.5343H1168.02C1168.02 -4.24524 1168.02 6.04489 1168.02 16.3361H1171V-22.2527H1152.57V31.7632H1171V24.0545H1160.3ZM1171 -49.2639V-45.4047H1140.99V-49.2639H1171ZM1171 -37.6863V-29.9679H1140.99V-37.6863H1171ZM1171 39.4914V43.3473H1140.99V-22.2527H1144.85V39.4914H1171Z" fill="#FEFEFE"/>
<path fill-rule="evenodd" clip-rule="evenodd" d="M1098.52 54.9249V16.3361H1106.24C1106.24 26.6252 1106.24 36.9153 1106.24 47.2065H1129.41V-6.80937H1079.22V0.905793H1121.69V39.4978H1113.97C1113.97 29.2088 1113.97 18.9176 1113.97 8.6242H1090.79V62.6401H1171V54.9249H1098.52ZM1171 43.3473V47.2065H1137.14V-14.5343H1079.23V-18.3935H1141V43.3473H1171ZM1171 70.3552V108.96H1168.01C1168.01 98.6539 1168.01 88.3627 1168.01 78.0867H1160.29V116.666H1171V124.384H1152.57V70.3682L1171 70.3552ZM1171 132.099V135.968H1140.99V74.2177H1079.22V8.6177H1083.07V70.3585H1144.85V132.103L1171 132.099Z" fill="#FEFEFE"/>
<path fill-rule="evenodd" clip-rule="evenodd" d="M1168.02 -84C1168.02 -81.425 1168.02 -78.8501 1168.02 -76.2751H1171V-84H1168.02ZM1144.86 -84V-53.1198H1171V-49.2639H1140.99V-84H1144.86ZM1152.58 -84H1160.3V-68.5567H1171V-60.8383H1152.57L1152.58 -84Z" fill="#FEFEFE"/>
<path fill-rule="evenodd" clip-rule="evenodd" d="M1121.69 -84V-53.1231H1113.96C1113.96 -63.4078 1113.96 -73.6979 1113.96 -83.9935H1090.79V-29.9776H1140.99V-37.6863H1098.52V-76.2751H1106.24C1106.24 -65.986 1106.24 -55.6959 1106.24 -45.4047H1129.41V-84H1121.69ZM1017.44 -84H1083.07V-22.2527H1140.99L1140.99 -18.3935H1079.22V-80.1343H1017.44V-84ZM1137.14 -84H1141V-45.4047H1137.14V-84Z" fill="#FEFEFE"/>
<path fill-rule="evenodd" clip-rule="evenodd" d="M835.969 -84V-83.9967H893.885V-80.1375H832.107V-84H835.969Z" fill="#FEFEFE"/>
<path fill-rule="evenodd" clip-rule="evenodd" d="M797.357 -84C797.357 -81.425 797.357 -78.8511 797.357 -76.2783H820.53V-84H797.357ZM770.33 -84H774.191V-53.1263H832.097V-49.2671H770.33V-84ZM781.913 -84H789.635V-68.5599H832.097V-60.8415H781.913V-84ZM828.249 -84V-76.2783H832.097V-84H828.249Z" fill="#FEFEFE"/>
<path fill-rule="evenodd" clip-rule="evenodd" d="M751.034 -84V-53.1263H743.308C743.308 -63.4154 743.308 -73.7055 743.308 -83.9967H720.135V-29.9841H770.329V-37.6895H727.857V-76.2783H735.583C735.583 -65.9915 735.583 -55.7013 735.583 -45.4079H758.756V-84H751.034ZM646.778 -84H712.413V-22.256H770.329V-18.3967H708.555V-80.1375H646.778V-84ZM766.471 -84H770.33L770.329 -45.4079H766.471V-84Z" fill="#FEFEFE"/>
<path fill-rule="evenodd" clip-rule="evenodd" d="M604.302 -68.5632V-84H596.58V-60.8448H689.253V-22.256H681.527C681.527 -32.545 681.527 -42.8351 681.527 -53.1263H658.354V0.889527H708.552V-6.82238H666.08V-45.4112H673.805C673.805 -35.1221 673.805 -24.8309 673.805 -14.5375H696.975V-68.5534L604.302 -68.5632ZM585 -84H588.861V-53.1263H650.635V8.61444H708.555V12.4737H646.777V-49.2704H585V-84ZM612.021 -84H635.191V-76.2783H612.021V-84ZM642.913 -84H646.774V-80.1375H708.552V-14.5375H704.69V-76.2816H642.916L642.913 -84Z" fill="#FEFEFE"/>
<path fill-rule="evenodd" clip-rule="evenodd" d="M542.524 -37.6928V-76.2816H550.25C550.25 -65.9925 550.25 -55.7024 550.25 -45.4112H573.42V-84H565.701V-53.1296H557.979C557.979 -63.4165 557.979 -73.7066 557.979 -84H534.805V-29.9841H627.478V8.61444H619.75C619.75 -1.67461 619.75 -11.9658 619.75 -22.2592H596.577V31.7567H646.774V24.048H604.302V-14.5408H612.021C612.021 -4.25174 612.021 6.03947 612.021 16.3329H635.191V-37.683L542.524 -37.6928ZM581.139 -84H585V-49.2704H646.777L646.777 16.3329H642.916V-45.4112H581.139V-84ZM527.096 -22.2592H588.874V39.4848H646.79V43.3408H585V-18.4H523.222V-84H527.083L527.096 -22.2592Z" fill="#FEFEFE"/>
<path fill-rule="evenodd" clip-rule="evenodd" d="M480.747 -6.82236V-45.4112H488.475C488.475 -35.1265 488.475 -24.8363 488.475 -14.5408H511.648V-68.5566H461.444V-60.848H503.936V-22.2592H496.211C496.211 -32.5482 496.211 -42.8384 496.211 -53.1296H473.041V0.886294H565.71V39.4849H557.978C557.978 29.1958 557.978 18.9046 557.978 8.61122H534.805V62.6271H584.999V54.9184H542.524V16.3296H550.25C550.25 26.6187 550.25 36.9088 550.25 47.2H573.422V-6.81585L480.747 -6.82236ZM465.306 8.61122H527.083V70.352H584.999V74.2112H523.222V12.4704H461.444V-53.1296H465.306V8.61122ZM523.222 -80.1408L523.222 -18.4H585L584.999 47.2H581.138V-14.5408H519.361V-76.2816H461.444V-80.1408H523.222Z" fill="#FEFEFE"/>
<path fill-rule="evenodd" clip-rule="evenodd" d="M418.966 24.0318V-14.544H426.694C426.694 -4.25491 426.694 6.0363 426.694 16.3297H449.867V-37.6862H399.667V-29.984H442.142V8.61128H434.416C434.416 -1.67777 434.416 -11.9679 434.416 -22.2591H411.25V31.7568H503.936V70.3521H496.21C496.21 60.0652 496.21 49.7751 496.21 39.4817H473.04V93.4975H523.235V85.7889H480.746V47.2001H488.475C488.475 57.4891 488.475 67.7793 488.475 78.0705H511.648V24.0546L418.966 24.0318ZM403.524 39.4687H465.302V101.222H523.218V105.082H461.444V43.3409H399.667V-22.2591H403.528V39.4817L403.524 39.4687ZM461.441 -49.2833V12.4705H523.218V78.0705H519.357V16.3297H457.586V-45.4111H399.67V-49.2703L461.441 -49.2833Z" fill="#FEFEFE"/>
<path fill-rule="evenodd" clip-rule="evenodd" d="M523.222 -84L523.222 -80.1408H461.444V-84H523.222Z" fill="#FEFEFE"/>
<path fill-rule="evenodd" clip-rule="evenodd" d="M426.691 -84V-76.2816H449.864V-84H426.691ZM399.667 -84H403.528V-53.1296L461.444 -53.1296L461.444 -49.2704H399.667V-84ZM411.25 -84H418.966V-68.5664H461.441V-60.848H411.25V-84ZM457.583 -84V-76.2816H461.441V-84H457.583Z" fill="#FEFEFE"/>
<path fill-rule="evenodd" clip-rule="evenodd" d="M1160.3 394.499V355.91H1168.02C1168.02 366.2 1168.02 376.491 1168.02 386.784H1171V348.192H1152.57V402.208H1171V394.49L1160.3 394.499ZM1171 321.184V325.043H1140.99V321.184H1171ZM1171 332.759V340.477H1140.99V332.759H1171ZM1171 409.936V413.795H1140.99V348.195H1144.85V409.952L1171 409.936Z" fill="#FEFEFE"/>
<path fill-rule="evenodd" clip-rule="evenodd" d="M1098.52 425.37V386.781H1106.24C1106.24 397.07 1106.24 407.361 1106.24 417.654H1129.42V363.639H1079.22V371.357H1121.69V409.952H1113.96C1113.96 399.663 1113.96 389.373 1113.96 379.082H1090.79V433.098H1171V425.379L1098.52 425.37ZM1171 413.795L1171 417.654H1137.14V355.91H1079.23V352.051H1141V413.795H1171ZM1171 440.803V479.392H1168.02C1168.02 469.086 1168.02 458.795 1168.02 448.522H1160.29V487.11H1171V494.826H1152.57V440.81L1171 440.803ZM1171 502.544V506.403H1140.99V444.666H1079.22V379.062H1083.08V440.806H1144.85V502.547L1171 502.544Z" fill="#FEFEFE"/>
<path fill-rule="evenodd" clip-rule="evenodd" d="M1036.74 456.24V417.651H1044.47C1044.47 427.94 1044.47 438.23 1044.47 448.522H1067.64V394.506H1017.44V402.224H1059.91V440.813H1052.17C1052.17 430.524 1052.17 420.233 1052.17 409.939H1029V463.955H1121.67V502.544H1113.96C1113.96 492.255 1113.96 481.965 1113.96 471.674H1090.79V525.69H1140.99V517.984H1098.52V479.392H1106.25C1106.25 489.681 1106.25 499.972 1106.25 510.266H1129.42V456.25L1036.74 456.24ZM1021.3 471.677H1083.08V533.418H1140.99V537.277H1079.22V475.533H1017.44V409.933H1021.3V471.677ZM1079.22 382.922L1079.22 444.666H1140.99L1140.99 510.266H1137.14V448.522H1075.35V386.781H1017.44V382.922H1079.22Z" fill="#FEFEFE"/>
<path fill-rule="evenodd" clip-rule="evenodd" d="M974.966 487.11V448.522H982.694C982.694 458.811 982.694 469.101 982.694 479.392H1005.87V425.376H955.66V433.091H998.129V471.683H990.403C990.403 461.394 990.403 451.103 990.403 440.81H967.234V494.826H1059.9V533.414H1052.17C1052.17 523.125 1052.17 512.834 1052.17 502.541H1029V556.557H1079.2V548.838H1036.74V510.262H1044.47C1044.47 520.552 1044.47 530.842 1044.47 541.133H1067.64V487.117L974.966 487.11ZM959.521 502.544H1021.3V564.288H1079.22V568.144H1017.44V506.403H955.66V440.803H959.521V502.544ZM1017.44 413.792L1017.44 475.533H1079.22L1079.22 541.136H1075.36V479.392H1013.58V417.651H955.663V413.792H1017.44Z" fill="#FEFEFE"/>
<path fill-rule="evenodd" clip-rule="evenodd" d="M913.191 517.984V479.392H920.916C920.916 489.677 920.916 499.967 920.916 510.262H944.089V456.247H893.885V463.968H936.36V502.557H928.635C928.635 492.268 928.635 481.978 928.635 471.687H905.462V525.702H998.131V564.295H990.406C990.406 554.006 990.406 543.714 990.406 533.421H967.233V572H974.955V541.136H982.681C982.681 551.421 982.681 561.709 982.681 572H1005.85V517.984H913.191ZM955.663 572V537.274H893.889V471.674H897.75V533.414H959.527V572H955.663ZM955.663 444.666V506.406H1017.44V572H1013.58V510.262H951.805V448.522H893.885V444.662L955.663 444.666Z" fill="#FEFEFE"/>
<path fill-rule="evenodd" clip-rule="evenodd" d="M851.412 548.848V510.259H859.137C859.137 520.548 859.137 530.839 859.137 541.133H882.307V487.117H832.097V494.835H874.572V533.424H866.843C866.843 523.135 866.843 512.845 866.843 502.554H843.67V556.57H936.343V572H944.088V548.854L851.412 548.848ZM928.637 572H905.467V564.285H928.64C928.64 566.855 928.64 569.426 928.64 571.997L928.637 572ZM951.804 572V541.136H890.026V479.392H832.097V475.533H893.887L893.889 537.274H955.663V572H951.804ZM893.887 572V568.147H832.097V502.547H835.954V564.288H897.732V572H893.887Z" fill="#FEFEFE"/>
<path fill-rule="evenodd" clip-rule="evenodd" d="M789.636 572V541.133H797.361C797.361 551.418 797.361 561.707 797.361 572H820.531V517.984H770.333V525.702H812.808V564.291H805.077C805.077 554.002 805.077 543.712 805.077 533.421H781.904V572H789.636ZM828.25 572V510.259H770.333V506.403H832.098V568.144H893.888L893.887 572H828.25ZM770.333 572V533.411H774.194V572H770.333Z" fill="#FEFEFE"/>
<path fill-rule="evenodd" clip-rule="evenodd" d="M1160.3 209.277V170.688H1168.02C1168.02 180.977 1168.02 191.268 1168.02 201.562H1171V162.976H1152.57V216.992H1171V209.277H1160.3ZM1171 135.968L1171 139.824H1140.99L1140.99 135.968H1171ZM1171 147.543V155.261H1140.99V147.536L1171 147.543ZM1171 224.72V228.579H1140.99V162.976H1144.85V224.714L1171 224.72Z" fill="#FEFEFE"/>
<path fill-rule="evenodd" clip-rule="evenodd" d="M1098.52 240.147V201.559H1106.24C1106.24 211.848 1106.24 222.138 1106.24 232.429H1129.41V178.413H1079.22V186.131H1121.69V224.714H1113.96C1113.96 214.425 1113.96 204.133 1113.96 193.84H1090.79V247.856H1171V240.147H1098.52ZM1171 228.573V232.429H1137.14V170.688H1079.23V166.829H1141V228.573H1171ZM1171 255.581V294.173H1168.02C1168.02 283.867 1168.02 273.575 1168.02 263.299H1160.29V301.888H1171V309.607H1152.57V255.591L1171 255.581ZM1171 317.325L1171 321.184H1140.99L1140.99 259.44H1079.22V193.84H1083.08V255.584H1144.85V317.325H1171Z" fill="#FEFEFE"/>
<path fill-rule="evenodd" clip-rule="evenodd" d="M1036.74 271.008V232.429H1044.47C1044.47 242.718 1044.47 253.008 1044.47 263.299H1067.64V209.283H1017.44V216.992H1059.91V255.584H1052.17C1052.17 245.295 1052.17 235.004 1052.17 224.71H1029V278.726H1121.67V317.315H1113.96C1113.96 307.026 1113.96 296.735 1113.96 286.442H1090.79V340.457H1140.99V332.739H1098.52V294.17H1106.24C1106.24 304.459 1106.24 314.749 1106.24 325.04H1129.42V271.008H1036.74ZM1021.3 286.442H1083.08V348.186H1140.99V352.041H1079.22V290.31H1017.44V224.71H1021.3V286.451V286.442ZM1079.22 197.69V259.43H1140.99V325.034H1137.14V263.299H1075.35V201.558H1017.44V197.699L1079.22 197.69Z" fill="#FEFEFE"/>
<path fill-rule="evenodd" clip-rule="evenodd" d="M974.962 301.888V263.299H982.691C982.691 273.588 982.691 283.878 982.691 294.17H1005.86V240.154H955.66V247.869H998.129V286.458H990.403C990.403 276.169 990.403 265.879 990.403 255.587H967.234V309.603H1059.9V348.192H1052.17C1052.17 337.903 1052.17 327.612 1052.17 317.318H1029V371.334H1079.2V363.616H1036.74V325.04H1044.47C1044.47 335.329 1044.47 345.619 1044.47 355.91H1067.64V301.895L974.962 301.888ZM959.521 317.322H1021.3V379.062H1079.22L1079.22 382.922H1017.44L1017.44 321.181H955.66V255.581H959.521V317.322ZM1017.44 228.57L1017.44 290.31H1079.22L1079.22 355.91H1075.35V294.17H1013.58V232.429H955.66V228.57H1017.44Z" fill="#FEFEFE"/>
<path fill-rule="evenodd" clip-rule="evenodd" d="M913.191 332.758V294.17H920.916C920.916 304.454 920.916 314.745 920.916 325.04H944.089V271.008H893.885V278.726H936.36V317.315H928.635C928.635 307.026 928.635 296.736 928.635 286.445H905.462V340.461H998.131V379.049H990.406C990.406 368.765 990.406 358.475 990.406 348.179H967.236V402.195H1017.43V394.476H974.965V355.91H982.694C982.694 366.2 982.694 376.49 982.694 386.781H1005.87V332.765L913.191 332.758ZM897.746 348.192H959.524V409.933H1017.44V413.792H955.663L955.663 352.051H893.885V286.451H897.746V348.192ZM955.663 259.44V321.181H1017.44V386.781H1013.58V325.04H951.805V263.299H893.885V259.44H955.663Z" fill="#FEFEFE"/>
<path fill-rule="evenodd" clip-rule="evenodd" d="M851.412 363.626V325.024H859.137C859.137 335.313 859.137 345.604 859.137 355.897H882.31V301.882H832.097V309.6H874.582V348.192H866.856C866.856 337.903 866.856 327.613 866.856 317.322H843.683V371.338H936.353V409.926H928.627C928.627 399.637 928.627 389.347 928.627 379.056H905.454V433.072H955.648V425.357H913.189V386.781H920.915C920.915 397.068 920.915 407.358 920.915 417.651H944.088V363.635L851.412 363.626ZM897.745 379.062V440.803L955.66 440.803L955.661 444.662H893.885L893.884 382.922H832.097V317.322H835.958V379.062H897.745ZM893.884 290.31L893.885 352.051H955.663L955.661 417.651H951.804V355.91H890.026V294.166H832.097V290.31H893.884Z" fill="#FEFEFE"/>
<path fill-rule="evenodd" clip-rule="evenodd" d="M789.636 394.496V355.907H797.361C797.361 366.196 797.361 376.486 797.361 386.778H820.531V332.762H770.333V340.48H812.808V379.069H805.077C805.077 368.78 805.077 358.489 805.077 348.195H781.904V402.211H874.576V440.8H866.851C866.851 430.511 866.851 420.221 866.851 409.93H843.678V463.945H893.888V456.227H851.413V417.648H859.138C859.138 427.937 859.138 438.228 859.138 448.522H882.308V394.506L789.636 394.496ZM774.191 409.933H835.968V471.674L893.889 471.674L893.887 475.533H832.097L832.098 413.789H770.333V348.189H774.191V409.933ZM832.098 321.178L832.097 382.922H893.875V448.522H890.014V386.781H828.25V325.024H770.333V321.165L832.098 321.178Z" fill="#FEFEFE"/>
<path fill-rule="evenodd" clip-rule="evenodd" d="M727.858 425.366V386.778H735.583C735.583 397.067 735.583 407.357 735.583 417.648H758.753V363.632H708.556V371.347H751.034V409.939H743.305C743.305 399.65 743.305 389.359 743.305 379.066H720.132V433.082H812.805V471.67H805.076C805.076 461.381 805.076 451.09 805.076 440.797H781.903V494.813H832.097V487.094H789.635V448.518H797.361C797.361 458.807 797.361 469.099 797.361 479.392H820.53V425.376L727.858 425.366ZM712.417 440.8H774.194V502.544H832.097L832.098 506.403H770.333L770.333 444.659H708.556V379.059H712.417V440.8ZM770.333 352.048L770.333 413.789H832.098L832.097 479.392L828.236 479.392V417.648H766.472V355.907H708.556V352.048H770.333Z" fill="#FEFEFE"/>
<path fill-rule="evenodd" clip-rule="evenodd" d="M1036.74 85.7953V47.2065H1044.47C1044.47 57.4956 1044.47 67.7857 1044.47 78.0769H1067.64V24.061H1017.44V31.7762H1059.91V70.3585H1052.17C1052.17 60.0716 1052.17 49.7815 1052.17 39.4881H1029V93.504H1121.67V132.103H1113.94C1113.94 121.813 1113.94 111.522 1113.94 101.229H1090.77V155.245H1140.97V147.536H1098.52V108.96H1106.24C1106.24 119.249 1106.24 129.54 1106.24 139.831H1129.41V85.8148L1036.74 85.7953ZM1021.3 101.229H1083.08V162.976H1140.99L1140.99 166.832H1079.22V105.088H1017.44V39.4881H1021.3V101.229ZM1079.22 12.4769L1079.22 74.2177H1140.99L1140.99 139.818H1137.14V78.0769H1075.35V16.3361H1017.44V12.4769H1079.22Z" fill="#FEFEFE"/>
<path fill-rule="evenodd" clip-rule="evenodd" d="M974.962 116.662V78.0769H982.691C982.691 88.3638 982.691 98.6539 982.691 108.947H1005.86V54.9314H955.66V62.6498H998.129V101.229H990.403C990.403 90.9398 990.403 80.6497 990.403 70.3585H967.234V124.374H1059.9V162.976H1052.17C1052.17 152.691 1052.17 142.401 1052.17 132.106H1029V186.122H1079.2V178.406H1036.74V139.818H1044.47C1044.47 150.107 1044.47 160.397 1044.47 170.688H1067.64V116.672L974.962 116.662ZM959.521 132.099H1021.3V193.84L1079.22 193.84L1079.22 197.699H1017.44L1017.44 135.968H955.66V70.3585H959.521V132.099ZM1017.44 43.3473L1017.44 105.088H1079.22L1079.22 170.688H1075.35V108.96H1013.58V47.2065H955.66V43.3473H1017.44Z" fill="#FEFEFE"/>
<path fill-rule="evenodd" clip-rule="evenodd" d="M913.187 147.533V108.96H920.916C920.916 119.249 920.916 129.541 920.916 139.834H944.089V85.8181H893.885V93.5365H936.36V132.099H928.635C928.635 121.81 928.635 111.52 928.635 101.229H905.465V155.245H998.131V193.84H990.406C990.406 183.551 990.406 173.261 990.406 162.97H967.236V216.992H1017.43V209.277H974.965V170.688H982.694C982.694 180.973 982.694 191.263 982.694 201.559H1005.87V147.543L913.187 147.533ZM897.746 162.976H959.524V224.711H1017.44V228.57H955.663V166.829H893.885V101.229H897.746V162.976ZM955.663 74.2242V135.968H1017.44V201.568H1013.58V139.818H951.805V78.0737H893.889V74.2177L955.663 74.2242Z" fill="#FEFEFE"/>
<path fill-rule="evenodd" clip-rule="evenodd" d="M851.412 178.403V139.814H859.137C859.137 150.103 859.137 160.394 859.137 170.685H882.31V116.669H832.097V124.387H874.582V162.976H866.856C866.856 152.687 866.856 142.396 866.856 132.103H843.686V186.118H936.356V224.71H928.63C928.63 214.421 928.63 204.131 928.63 193.84H905.461V247.856H955.655V240.144H913.186V201.555H920.911C920.911 211.844 920.911 222.136 920.911 232.429H944.088V178.413L851.412 178.403ZM897.745 193.84V255.581H955.66L955.663 259.44H893.885L893.884 197.696H832.097V132.096H835.958V193.84H897.745ZM893.884 105.085L893.885 166.829H955.663L955.66 232.429H951.804V170.688H890.026V108.96H832.097V105.085H893.884Z" fill="#FEFEFE"/>
<path fill-rule="evenodd" clip-rule="evenodd" d="M789.636 209.274V170.685H797.361C797.361 180.974 797.361 191.264 797.361 201.555H820.534V147.539H770.333V155.255H812.805V193.847H805.077C805.077 183.558 805.077 173.266 805.077 162.973H781.904V216.992H874.583V255.581H866.857C866.857 245.292 866.857 235.001 866.857 224.707H843.684V278.723H893.878V271.008H851.413V232.426H859.138C859.138 242.715 859.138 253.006 859.138 263.299H882.311V209.283L789.636 209.274ZM774.191 224.707H835.969V286.451H893.885L893.884 290.31H832.097L832.098 228.566H770.333V162.976H774.191V224.707ZM832.098 135.968L832.097 197.696H893.875V263.299H890.017V201.555H828.25V139.814H770.333V135.968H832.098Z" fill="#FEFEFE"/>
<path fill-rule="evenodd" clip-rule="evenodd" d="M727.858 240.144V201.555H735.583C735.583 211.844 735.583 222.134 735.583 232.426H758.753V178.41H708.556V186.125H751.034V224.707H743.305C743.305 214.423 743.305 204.132 743.305 193.837H720.132V247.853H812.805V286.442H805.076C805.076 276.152 805.076 265.861 805.076 255.568H781.903V309.584H832.097V301.865H789.635V263.296H797.361C797.361 273.585 797.361 283.875 797.361 294.166H820.53V240.151L727.858 240.144ZM712.413 255.578H774.191V317.322L832.097 317.322L832.098 321.178H770.333V259.437H708.556V193.837H712.413V255.578ZM770.333 166.826L770.333 228.566H832.098L832.097 294.17H828.239V232.426H766.472V170.685H708.556V166.826H770.333Z" fill="#FEFEFE"/>
<path fill-rule="evenodd" clip-rule="evenodd" d="M666.08 271.008V232.426H673.805C673.805 242.712 673.805 253.003 673.805 263.296H696.975V209.28H646.778V216.992H689.253V255.581H681.527C681.527 245.292 681.527 235.002 681.527 224.71H658.354V278.726H751.034V317.315H743.305C743.305 307.03 743.305 296.74 743.305 286.445H720.132V340.461H770.329V332.742H727.857V294.166H735.583C735.583 304.455 735.583 314.746 735.583 325.037H758.753V271.008H666.08ZM650.639 286.442H712.416V348.182H770.333V352.041H708.555V290.307H646.778V224.707H650.639V286.448V286.442ZM708.555 197.69V259.43H770.333L770.333 325.024L766.471 325.024V263.296H704.694V201.555H646.778V197.696L708.555 197.69Z" fill="#FEFEFE"/>
<path fill-rule="evenodd" clip-rule="evenodd" d="M604.302 301.882V263.293H612.021C612.021 273.582 612.021 283.873 612.021 294.166H635.194V240.151H585V247.869H627.475V286.458H619.75C619.75 276.169 619.75 265.879 619.75 255.587H596.58V309.603H689.249V348.192H681.524C681.524 337.903 681.524 327.613 681.524 317.322H658.351V371.337H708.548V363.622H666.08V325.024H673.808C673.808 335.311 673.808 345.601 673.808 355.894H696.991V301.878L604.302 301.882ZM588.861 317.318H650.638V379.059H708.556L708.555 382.918H646.777V321.178H585V255.578H588.861V317.318ZM646.777 228.566L646.778 290.307H708.555L708.556 355.907L704.694 355.907V294.166H642.916V232.422H585V228.566H646.777Z" fill="#FEFEFE"/>
<path fill-rule="evenodd" clip-rule="evenodd" d="M974.962 -68.5599V-84H967.24V-60.8415H1059.91V-22.2527H1052.17C1052.17 -32.5418 1052.17 -42.8319 1052.17 -53.1231H1029V0.892773H1079.2V-6.81588H1036.74V-45.4047H1044.47C1044.47 -35.1178 1044.47 -24.8277 1044.47 -14.5343H1067.64V-68.5502L974.962 -68.5599ZM955.66 -84H959.521V-53.1231H1021.3V8.61769L1079.22 8.6177L1079.22 12.4769H1017.44L1017.44 -49.2639H955.66V-84ZM982.681 -84H1005.85V-76.2718H982.681V-84ZM1013.57 -84H1017.43V-80.1343H1079.21V-14.5343H1075.35V-76.2751H1013.58L1013.57 -84Z" fill="#FEFEFE"/>
<path fill-rule="evenodd" clip-rule="evenodd" d="M913.187 -37.6895V-76.2783H920.916C920.916 -65.9893 920.916 -55.6992 920.916 -45.4079H944.089V-84H936.367V-53.1231H928.642C928.642 -63.4121 928.642 -73.7034 928.642 -83.9967H905.472V-29.9841H998.131V8.6177H990.406C990.406 -1.67135 990.406 -11.9615 990.406 -22.2527H967.233V31.7632H1017.43V24.0513H974.965V-14.5375H982.69C982.69 -4.2485 982.69 6.04272 982.69 16.3361H1005.86V-37.6798L913.187 -37.6895ZM951.802 -84H955.663V-49.2639H1017.44V16.3361H1013.58V-45.4047H951.802V-84ZM897.759 -22.2527H959.537V39.4881H1017.45V43.3473H955.663V-18.3935H893.885V-84H897.746L897.759 -22.2527Z" fill="#FEFEFE"/>
<path fill-rule="evenodd" clip-rule="evenodd" d="M851.409 -6.81912V-45.4079H859.137C859.137 -35.1189 859.137 -24.8287 859.137 -14.5375H882.31V-68.5534H832.097V-60.8448H874.582V-22.2527H866.856C866.856 -32.5417 866.856 -42.833 866.856 -53.1263H843.686V0.889534H936.356V39.4881H928.63C928.63 29.199 928.63 18.9089 928.63 8.61771H905.461V62.6336H955.655V54.9217H913.186V16.3329H920.915C920.915 26.6219 920.915 36.9131 920.915 47.2065H944.088V-6.80936L851.409 -6.81912ZM897.745 8.61445V70.3585L955.66 70.3585L955.661 74.2177H893.884V12.4737H832.097L832.097 -53.1263L835.958 -53.1263V8.61445H897.745ZM893.885 -80.1375L893.885 -18.3935H955.663L955.66 47.2065L951.8 47.2065V-14.5375H890.023V-76.2783L832.097 -76.2783L832.097 -80.1375L893.885 -80.1375Z" fill="#FEFEFE"/>
<path fill-rule="evenodd" clip-rule="evenodd" d="M789.635 24.0513V-14.5375H797.361C797.361 -4.24848 797.361 6.04165 797.361 16.3329H820.534V-37.683H770.33L770.329 -29.9841L812.805 -29.9841V8.61446H805.076C805.076 -1.67242 805.076 -11.9626 805.076 -22.2559H781.906V31.7599H874.582V70.3585H866.857C866.857 60.0694 866.857 49.7782 866.857 39.4848H843.687V93.5007H893.881V85.7921H851.413V47.2033H859.141C859.141 57.4923 859.141 67.7824 859.141 78.0737H882.314V24.0578L789.635 24.0513ZM774.191 39.4848H835.968V101.229L893.885 101.229L893.884 105.085H832.097L832.097 43.3441H770.33L770.329 -22.256L774.191 -22.2559V39.4848ZM832.097 -49.2671L832.097 12.4737L893.875 12.4737V78.0769H890.017V16.3329H828.249V-45.4079H770.333V-49.2671L832.097 -49.2671Z" fill="#FEFEFE"/>
<path fill-rule="evenodd" clip-rule="evenodd" d="M727.858 54.9217V16.3329H735.583C735.583 26.6198 735.583 36.9099 735.583 47.2033H758.756V-6.8126H708.556V0.896054H751.034V39.4849H743.309C743.309 29.1958 743.309 18.9057 743.309 8.61447H720.136V62.6303H812.805V101.226H805.076C805.076 90.9409 805.076 80.6508 805.076 70.3553H781.903V124.371H832.097V116.662H789.635V78.0737H797.361C797.361 88.3627 797.361 98.6529 797.361 108.944H820.534V54.9282L727.858 54.9217ZM712.413 70.3553H774.191V132.096L832.097 132.096L832.098 135.968H770.333L770.333 74.2145H708.556L708.555 8.61444L712.413 8.61447V70.3553ZM770.329 -18.3967L770.33 43.3441H832.097L832.097 108.96L828.239 108.96V47.2033H766.472V-14.5375H708.556L708.555 -18.3967H770.329Z" fill="#FEFEFE"/>
<path fill-rule="evenodd" clip-rule="evenodd" d="M666.08 85.7889V47.2001H673.805C673.805 57.4891 673.805 67.7803 673.805 78.0737H696.975V24.0578H646.778V31.7762H689.253V70.3553H681.524C681.524 60.0663 681.524 49.7761 681.524 39.4849H658.351V93.5008H751.034V132.09H743.308C743.308 121.801 743.308 111.51 743.308 101.219H720.135V155.235H770.333V147.533H727.857V108.96H735.583C735.583 119.249 735.583 129.54 735.583 139.831H758.753V85.8149L666.08 85.7889ZM650.635 101.226H712.413V162.976L770.333 162.976L770.333 166.835H708.555V105.085H646.778V39.4849H650.635V101.226ZM708.555 12.4737L708.556 74.2145H770.333L770.333 139.814L766.471 139.815V78.0737H704.694V16.3329L646.777 16.3329L646.777 12.4737H708.555Z" fill="#FEFEFE"/>
<path fill-rule="evenodd" clip-rule="evenodd" d="M604.302 116.659V78.0704H612.021C612.021 88.3595 612.021 98.6507 612.021 108.944H635.191V54.9282H585V62.6466H627.475V101.226H619.75C619.75 90.9366 619.75 80.6454 619.75 70.352H596.577V124.368H689.249V162.976H681.521C681.521 152.687 681.521 142.397 681.521 132.106H658.348V186.122H708.545V178.4H666.08V139.815H673.805C673.805 150.099 673.805 160.389 673.805 170.685H696.975V116.669L604.302 116.659ZM588.861 132.096H650.638V193.837L708.556 193.837L708.555 197.696L646.778 197.696L646.777 135.968H585L584.999 70.352L588.861 70.352V132.096ZM646.777 43.3408L646.778 105.085H708.555L708.556 170.685L704.694 170.685V108.96H642.916V47.2H584.999L585 43.3408L646.777 43.3408Z" fill="#FEFEFE"/>
<path fill-rule="evenodd" clip-rule="evenodd" d="M542.524 147.53V108.941H550.253C550.253 119.23 550.253 129.52 550.253 139.811H573.426V85.7954H523.222V93.5138H565.697V132.096H557.979C557.979 121.807 557.979 111.516 557.979 101.222H534.809V155.238H627.478V193.837H619.753C619.753 183.548 619.753 173.258 619.753 162.966H596.58V216.992H646.778L646.777 209.27H604.302V170.682H612.021C612.021 180.971 612.021 191.262 612.021 201.555H635.194V147.539L542.524 147.53ZM527.083 162.976H588.861V224.707H646.778L646.777 228.566H585L585 166.822H523.222V101.222H527.083V162.976ZM584.999 74.2112L585 135.968H646.777L646.777 201.568H642.916V139.811H581.139V78.0704H523.222L523.222 74.2112H584.999Z" fill="#FEFEFE"/>
<path fill-rule="evenodd" clip-rule="evenodd" d="M1160.3 572V541.139H1168.02C1168.02 551.422 1168.02 561.709 1168.02 572H1171V533.418H1152.57V572H1160.3ZM1171 506.406V510.266L1140.99 510.266L1140.99 506.406H1171ZM1171 517.981V525.699H1140.99V517.984L1171 517.981ZM1140.99 571.997L1140.99 533.418L1144.85 533.418V572L1140.99 571.997Z" fill="#FEFEFE"/>
<path fill-rule="evenodd" clip-rule="evenodd" d="M1113.97 572V564.288H1090.8V572H1113.97ZM1129.41 572H1121.69V556.573H1079.22V548.854H1129.41V572ZM1137.13 572V541.139H1079.22V537.28H1140.99V572H1137.13ZM1079.22 572H1083.08V564.288L1079.22 564.288L1079.22 572Z" fill="#FEFEFE"/>
<path d="M1079.22 568.144H1017.44L1017.44 571.993H1079.22L1079.22 568.144Z" fill="#FEFEFE"/>
<path d="M152.562 -84H90.7843V-80.144H152.562V-84Z" fill="#FEFEFE"/>
<path fill-rule="evenodd" clip-rule="evenodd" d="M56.0309 -84V-76.2881H79.204V-84H56.0309ZM32.8579 -84V-53.1329H90.7742V-49.2769H29.0066V-84H32.8579ZM48.3153 -84V-68.5697H90.784V-60.8513H40.5898V-84H48.3153ZM86.9229 -84V-76.2848H90.784L90.7843 -84H86.9229Z" fill="#FEFEFE"/>
<path fill-rule="evenodd" clip-rule="evenodd" d="M9.70427 -84V-53.1361H1.97558C1.97558 -63.4208 1.97558 -73.7088 1.97558 -84H-1V-45.4177H17.4264V-84H9.70427ZM25.1454 -84H29.0066L29.0065 -45.4177H25.1486V-84H25.1454ZM-1 -18.4065V-22.2657H29.0065V-18.4065H-1ZM-1 -29.9841V-37.6993H29.0065V-29.9841H-1Z" fill="#FEFEFE"/>
<path fill-rule="evenodd" clip-rule="evenodd" d="M542.524 332.752V294.163H550.253C550.253 304.452 550.253 314.743 550.253 325.037H573.426V271.008H523.222V278.726H565.697V317.315H557.979C557.979 307.026 557.979 296.735 557.979 286.442H534.809V340.457H627.478V379.046H619.753C619.753 368.757 619.753 358.467 619.753 348.176H596.583V402.192H646.777V394.473H604.302V355.904H612.021C612.021 366.193 612.021 376.484 612.021 386.778H635.194V332.762L542.524 332.752ZM527.083 348.189H588.861V409.93H646.777V413.789H585V352.048H523.222V286.445H527.083V348.189ZM585 259.434L585 321.178H646.777L646.777 386.778H642.916V325.024H581.139V263.293H523.222V259.434H585Z" fill="#FEFEFE"/>
<path fill-rule="evenodd" clip-rule="evenodd" d="M480.75 363.622V325.024H488.475C488.475 335.313 488.475 345.603 488.475 355.894H511.648V301.878H461.444V309.597H503.936V348.186H496.211C496.211 337.897 496.211 327.605 496.211 317.312H473.037V371.328H565.707V409.917H557.978C557.978 399.628 557.978 389.337 557.978 379.046H534.808V433.062H584.999V425.344H542.524V386.755H550.25C550.25 397.044 550.25 407.335 550.25 417.628H573.422V363.613L480.75 363.622ZM465.306 379.056H527.083V440.8H584.999V444.659H523.222V382.915H461.444V317.315H465.306V379.056ZM523.222 290.304L523.222 352.048H585L584.999 417.648H581.141V355.904H519.364V294.163H461.444V290.304H523.222Z" fill="#FEFEFE"/>
<path fill-rule="evenodd" clip-rule="evenodd" d="M418.966 394.493V355.904H426.691C426.691 366.193 426.691 376.483 426.691 386.774H449.864V332.758H399.667V340.474H442.145V379.062H434.42C434.42 368.778 434.42 358.488 434.42 348.192H411.25V402.208H503.936V440.8H496.21C496.21 430.511 496.21 420.22 496.21 409.926H473.037V463.942H523.231V456.224H480.75V417.645H488.475C488.475 427.934 488.475 438.224 488.475 448.515H511.648V394.499L418.966 394.493ZM403.521 409.926H465.299V471.67H523.215V475.526H461.444V413.786H399.67V348.186H403.531V409.926H403.521ZM461.438 321.174V382.915H523.215V448.518H519.357V386.774H457.586V325.024H399.667V321.165L461.438 321.174Z" fill="#FEFEFE"/>
<path fill-rule="evenodd" clip-rule="evenodd" d="M357.196 425.363V386.774H364.924C364.924 397.061 364.924 407.351 364.924 417.645H388.094V363.629H337.903V371.347H380.379V409.936H372.65C372.65 399.647 372.65 389.357 372.65 379.066H349.477V433.082H442.146V471.674H434.421C434.421 461.385 434.421 451.093 434.421 440.8H411.251V494.816H461.448V487.104H418.967V448.515H426.692C426.692 458.804 426.692 469.094 426.692 479.386H449.862V425.37L357.196 425.363ZM341.755 440.797H403.529V502.538H461.448V506.397H399.671V444.656H337.903V379.056H341.764V440.797H341.755ZM399.671 352.032V413.773H461.445V479.373H457.584V417.645H395.81V355.904H337.903V352.032H399.671Z" fill="#FEFEFE"/>
<path fill-rule="evenodd" clip-rule="evenodd" d="M295.417 456.23V417.642H303.142C303.142 427.931 303.142 438.222 303.142 448.515H326.316V394.499H276.115V402.218H318.59V440.806H310.861C310.861 430.517 310.861 420.227 310.861 409.936H287.695V463.952H380.368V502.541H372.639C372.639 492.256 372.639 481.966 372.639 471.67H349.466V525.686H399.663V517.984H357.194V479.386H364.923C364.923 489.675 364.923 499.965 364.923 510.256H388.093V456.24L295.417 456.23ZM279.976 471.667H341.753V533.408H399.67V537.267H337.902V475.526H276.115V409.926H279.976V471.667ZM337.902 382.915L337.903 444.656L399.68 444.656V510.256H395.818V448.515H334.031V386.774H276.115V382.915H337.902Z" fill="#FEFEFE"/>
<path fill-rule="evenodd" clip-rule="evenodd" d="M233.642 487.101V448.512H241.371C241.371 458.801 241.371 469.092 241.371 479.386H264.544V425.37H214.34V433.088H256.815V471.677H249.086C249.086 461.388 249.086 451.097 249.086 440.803H225.913V494.819H318.592V533.408H310.864C310.864 523.119 310.864 512.829 310.864 502.538H287.697V556.553H337.904V548.838H295.419V510.256H303.145C303.145 520.541 303.145 530.831 303.145 541.126H326.318V487.111L233.642 487.101ZM218.201 502.538H279.978V564.278H337.904V568.138H276.117V506.397H214.34V440.794H218.201V502.538ZM276.117 413.782V475.526H337.904V541.126H334.043V479.386H272.256V417.642H214.34V413.782H276.117Z" fill="#FEFEFE"/>
<path fill-rule="evenodd" clip-rule="evenodd" d="M171.871 517.984V479.382H179.599C179.599 489.671 179.599 499.962 179.599 510.253H202.772V456.237H152.562V463.955H195.037V502.544H187.309C187.309 492.255 187.309 481.964 187.309 471.67H164.145V525.686H256.815V564.275H249.086C249.086 553.986 249.086 543.696 249.086 533.405H225.913V572H233.635V541.126H241.364C241.364 551.415 241.364 561.707 241.364 572H264.537V517.984H171.871ZM214.346 572V537.264H152.562V471.664H156.423V533.405H218.201V572H214.346ZM214.346 444.656V506.4H276.117V572H272.256V510.256H210.482V448.512H152.562V444.653L214.346 444.656Z" fill="#FEFEFE"/>
<path fill-rule="evenodd" clip-rule="evenodd" d="M110.09 548.842V510.253H117.828C117.828 520.542 117.828 530.832 117.828 541.123H141.001V487.107H90.7843V494.822H133.26V533.411H125.531C125.531 523.124 125.531 512.834 125.531 502.541H102.368V556.557H195.037V572H202.759V548.845L110.09 548.842ZM187.315 572H164.145V564.275H187.315V572ZM210.481 572V541.126H148.704V479.382H90.7843V475.523H152.562L152.562 537.264H214.339V572H210.481ZM152.562 572V568.138H90.7843V502.538H94.6454V564.278H156.423V572H152.562Z" fill="#FEFEFE"/>
<path fill-rule="evenodd" clip-rule="evenodd" d="M480.747 178.4V139.811H488.475C488.475 150.1 488.475 160.39 488.475 170.682H511.648V116.666H461.444V124.381H503.936V162.976H496.211C496.211 152.691 496.211 142.401 496.211 132.106H473.041V186.122H565.71V224.707H557.978C557.978 214.418 557.978 204.127 557.978 193.834H534.808V247.849H584.999V240.141H542.524V201.552H550.253C550.253 211.841 550.253 222.131 550.253 232.422H573.426V178.406L480.747 178.4ZM465.306 193.834H527.083V255.578H585L585 259.434H523.222L523.222 197.693H461.444V132.093H465.306V193.834ZM523.222 105.082L523.222 166.822H585L584.999 232.426H581.138V170.682H519.364V108.941H461.448V105.082H523.222Z" fill="#FEFEFE"/>
<path fill-rule="evenodd" clip-rule="evenodd" d="M418.966 209.27V170.682H426.691C426.691 180.968 426.691 191.259 426.691 201.552H449.864V147.536H399.667V155.255H442.142V193.834H434.416C434.416 183.545 434.416 173.254 434.416 162.963H411.25V216.992H503.936V255.584H496.21C496.21 245.295 496.21 235.004 496.21 224.71H473.04V278.726H523.235V271.008H480.75V232.422H488.475C488.475 242.711 488.475 253.002 488.475 263.293H511.648V209.277L418.966 209.27ZM403.521 224.704H465.299V286.445H523.215V290.304H461.444L461.444 228.563H399.667V162.976H403.528V224.704H403.521ZM461.444 135.968L461.444 197.693H523.222L523.222 263.293L519.364 263.293V201.552H457.586V139.811H399.667V135.968H461.444Z" fill="#FEFEFE"/>
<path fill-rule="evenodd" clip-rule="evenodd" d="M357.196 240.138V201.549H364.924C364.924 211.838 364.924 222.129 364.924 232.422H388.094V178.406H337.903V186.125H380.379V224.714H372.653C372.653 214.425 372.653 204.135 372.653 193.843H349.48V247.859H442.149V286.448H434.424C434.424 276.161 434.424 265.871 434.424 255.578H411.251V309.594H461.445V301.875H418.967V263.293H426.692C426.692 273.582 426.692 283.872 426.692 294.163H449.865V240.147L357.196 240.138ZM341.751 255.574H403.529V317.315H461.444L461.445 321.174H399.668V259.434H337.903V193.834H341.761V255.574H341.751ZM399.668 166.822L399.667 228.563H461.444L461.444 294.163H457.587V232.422H395.81V170.682H337.903V166.822H399.668Z" fill="#FEFEFE"/>
<path fill-rule="evenodd" clip-rule="evenodd" d="M295.417 271.008V232.419H303.142C303.142 242.708 303.142 252.999 303.142 263.293H326.312V209.277H276.115V216.992H318.59V255.581H310.858C310.858 245.292 310.858 235.002 310.858 224.71H287.695V278.726H380.367V317.315H372.639C372.639 307.026 372.639 296.736 372.639 286.445H349.466V340.461H399.663V332.745H357.194V294.163H364.923C364.923 304.448 364.923 314.738 364.923 325.034H388.093V271.008H295.417ZM279.976 286.445H341.75V348.186L399.67 348.186L399.671 352.032H337.903L337.902 290.304H276.115V224.701H279.976V286.445ZM337.902 197.693L337.903 259.434H399.676V325.024H395.815V263.293H334.031V201.549H276.115V197.693H337.902Z" fill="#FEFEFE"/>
<path fill-rule="evenodd" clip-rule="evenodd" d="M233.642 301.878V263.29H241.367C241.367 273.579 241.367 283.869 241.367 294.16H264.537V240.144H214.34V247.862H256.815V286.451H249.086C249.086 276.162 249.086 265.871 249.086 255.578H225.913V309.593H318.592V348.182H310.86C310.86 337.893 310.86 327.603 310.86 317.312H287.697V371.328H337.904V363.609H295.419V325.024H303.145C303.145 335.313 303.145 345.604 303.145 355.897H326.315V301.882L233.642 301.878ZM218.201 317.315H279.978V379.056L337.903 379.056L337.904 382.915H276.117V321.171H214.34V255.571H218.201V317.315ZM276.117 228.56V290.304H337.904L337.903 355.904L334.043 355.904V294.163H272.256V232.419H214.34V228.56H276.117Z" fill="#FEFEFE"/>
<path fill-rule="evenodd" clip-rule="evenodd" d="M171.871 332.749V294.16H179.599C179.599 304.449 179.599 314.739 179.599 325.03H202.772V271.008H152.562V278.723H195.037V317.312H187.309C187.309 307.027 187.309 296.737 187.309 286.442H164.145V340.457H256.815V379.046H249.086C249.086 368.757 249.086 358.466 249.086 348.173H225.913V402.188H276.117V394.47H233.642V355.901H241.37C241.37 366.19 241.37 376.481 241.37 386.774H264.543V332.759L171.871 332.749ZM156.43 348.182H218.201V409.926H276.117L276.117 413.782H214.34L214.34 352.032H152.562V286.432H156.423V348.173L156.43 348.182ZM214.346 259.43V321.171L276.117 321.171L276.117 386.774H272.256V325.024H210.478V263.29H152.562V259.43H214.346Z" fill="#FEFEFE"/>
<path fill-rule="evenodd" clip-rule="evenodd" d="M110.087 363.619V325.024H117.828C117.828 335.313 117.828 345.603 117.828 355.894H141.001V301.878H90.7843V309.597H133.26V348.186H125.531C125.531 337.897 125.531 327.606 125.531 317.315H102.368V371.331H195.037V409.923H187.308C187.308 399.634 187.308 389.343 187.308 379.049H164.145V433.065H214.339V425.347H171.87V386.771H179.599C179.599 397.06 179.599 407.35 179.599 417.642H202.772V363.626L110.087 363.619ZM94.6454 379.04H156.423V440.78H214.339V444.64H152.562V382.912H90.7843V317.312H94.6454V379.04ZM152.562 290.288L152.562 352.032H214.34L214.339 417.632H210.481V355.901H148.704V294.16H90.7843V290.301L152.562 290.288Z" fill="#FEFEFE"/>
<path fill-rule="evenodd" clip-rule="evenodd" d="M48.312 394.486V355.897H56.0374C56.0374 366.187 56.0374 376.478 56.0374 386.771H79.2105V332.755H29.0066V340.474H71.4818V379.04H63.7531C63.7531 368.751 63.7531 358.46 63.7531 348.169H40.5898V402.185H133.259V440.774H125.531C125.531 430.489 125.531 420.199 125.531 409.904H102.367V463.919H152.561V456.201H110.089V417.642H117.828C117.828 427.931 117.828 438.221 117.828 448.512H141.001V394.496L48.312 394.486ZM32.8579 409.923H94.6451V471.664H152.562L152.562 475.523H90.7843L90.784 413.782H29.0066V348.182H32.8579V409.923ZM90.7742 321.171V382.912H152.562L152.562 448.512L148.704 448.512V386.771H86.9261V325.024H29.0066V321.165L90.7742 321.171Z" fill="#FEFEFE"/>
<path fill-rule="evenodd" clip-rule="evenodd" d="M357.196 54.9152V16.3264H364.924C364.924 26.6155 364.924 36.9067 364.924 47.2001H388.097V-6.81583H337.903V0.902594H380.379V39.4817H372.653C372.653 29.1926 372.653 18.9025 372.653 8.61124H349.48V62.6271H442.149V101.222H434.424C434.424 90.9334 434.424 80.6433 434.424 70.3521H411.251V124.368H461.445V116.659H418.967V78.0705H426.692C426.692 88.3552 426.692 98.6453 426.692 108.941H449.865V54.925L357.196 54.9152ZM341.751 70.3521H403.529V132.093L461.444 132.093L461.444 135.968H399.667L399.668 74.2113H337.903V8.60799H341.764V70.3521H341.751ZM399.668 -18.4L399.667 43.3409H461.444L461.445 108.941H457.587V47.2001H395.81V-14.544H337.903V-18.4H399.668Z" fill="#FEFEFE"/>
<path fill-rule="evenodd" clip-rule="evenodd" d="M295.417 85.7856V47.1968H303.142C303.142 57.4859 303.142 67.776 303.142 78.0672H326.312V24.0318H276.115V31.7502H318.587V70.352H310.858C310.858 60.063 310.858 49.7718 310.858 39.4784H287.695V93.4943H380.364V132.093H372.639C372.639 121.804 372.639 111.514 372.639 101.222H349.466V155.238H399.66V147.526H357.194V108.938H364.923C364.923 119.227 364.923 129.518 364.923 139.811H388.096V85.7954L295.417 85.7856ZM279.973 101.222H341.75V162.976L399.667 162.976L399.666 166.835H337.902V105.078H276.115V39.4784H279.973V101.222ZM337.902 12.4672L337.903 74.2113H399.68V139.811H395.822V78.0705H334.031V16.3264H276.115V12.4672H337.902Z" fill="#FEFEFE"/>
<path fill-rule="evenodd" clip-rule="evenodd" d="M233.642 116.656V78.0672H241.367C241.367 88.3562 241.367 98.6463 241.367 108.938H264.537V54.9217H214.34V62.6369H256.815V101.229H249.083C249.083 90.9399 249.083 80.6486 249.083 70.3553H225.913V124.371H318.592V162.96H310.86C310.86 152.671 310.86 142.38 310.86 132.086H287.697V186.102H337.904V178.397H295.419V139.808H303.145C303.145 150.097 303.145 160.388 303.145 170.682H326.315V116.666L233.642 116.656ZM218.198 132.09H279.975V193.834H337.903L337.904 197.693H276.117V135.949H214.34V70.3488H218.198V132.09ZM276.117 43.3376V105.078H337.904L337.903 170.682H334.043V108.938H272.256V47.1968H214.34V43.3376H276.117Z" fill="#FEFEFE"/>
<path fill-rule="evenodd" clip-rule="evenodd" d="M171.871 147.526V108.938H179.596C179.596 119.227 179.596 129.517 179.596 139.808H202.766V85.7921H152.562V93.5072H195.037V132.09H187.309C187.309 121.8 187.309 111.51 187.309 101.219H164.142V155.235H256.815V193.834H249.083C249.083 183.545 249.083 173.253 249.083 162.96H225.913V216.992H276.117V209.267H233.642V170.678H241.367C241.367 180.967 241.367 191.257 241.367 201.549H264.537V147.533L171.871 147.526ZM156.423 162.976H218.201V224.701H276.117L276.117 228.56H214.34L214.34 166.819H152.562V101.219H156.423V162.976ZM214.34 74.2079L214.34 135.949H276.117L276.117 201.549H272.256V139.808H210.478V78.0671H152.562V74.2079H214.34Z" fill="#FEFEFE"/>
<path fill-rule="evenodd" clip-rule="evenodd" d="M110.087 178.393V139.805H117.828C117.828 150.094 117.828 160.385 117.828 170.678H141.001V116.662H90.7843V124.381H133.26V162.976H125.531C125.531 152.687 125.531 142.397 125.531 132.106H102.368V186.122H195.037V224.701H187.308C187.308 214.416 187.308 204.126 187.308 193.83H164.145V247.846H214.339V240.138H171.87V201.549H179.599C179.599 211.838 179.599 222.128 179.599 232.419H202.772V178.403L110.087 178.393ZM94.6454 193.83H156.423V255.571H214.34L214.339 259.43H152.562L152.562 197.69H90.7843V132.09H94.6454V193.83ZM152.562 105.078L152.562 166.819H214.34L214.34 232.419H210.478V170.678H148.701V108.938H90.7843V105.078H152.562Z" fill="#FEFEFE"/>
<path fill-rule="evenodd" clip-rule="evenodd" d="M48.3088 209.264V170.675H56.0374C56.0374 180.964 56.0374 191.255 56.0374 201.549H79.2105V147.533H29.0066V155.251H71.4818V193.83H63.7531C63.7531 183.541 63.7531 173.251 63.7531 162.96H40.5898V216.992H133.259V255.581H125.531C125.531 245.292 125.531 235.002 125.531 224.71H102.367V278.726H152.561L152.562 271.008L110.086 271.008V232.419H117.828C117.828 242.706 117.828 252.996 117.828 263.29H141.001V209.274L48.3088 209.264ZM32.8579 224.701H94.6451V286.442H152.561V290.301L90.7843 290.301L90.784 228.56H29.0066V162.976H32.8579V224.701ZM90.7742 135.949V197.69H152.562L152.562 263.29H148.7V201.549H86.9261V139.805H29.0066V135.949H90.7742Z" fill="#FEFEFE"/>
<path fill-rule="evenodd" clip-rule="evenodd" d="M-1 232.419H17.4264V178.403H-1V186.112H9.70427V224.701H1.97558C1.97558 214.412 1.97558 204.12 1.97558 193.827H-1V232.419ZM-1 259.427V255.568H32.8578V317.312H90.7741L90.7742 321.171L29.0065 321.171V259.43L-1 259.427ZM-1 247.849H71.4817V286.438H63.753C63.753 276.149 63.753 265.859 63.753 255.568H40.5897V309.584H90.7839V301.865H48.3119V263.286H56.0373C56.0373 273.575 56.0373 283.867 56.0373 294.16H79.2104V240.144H-1V247.862V247.849ZM-1 170.675V166.816H29.0065L29.0066 228.56H90.784L90.7843 294.16L86.926 294.16V232.419H25.1486V170.675H-1Z" fill="#FEFEFE"/>
<path fill-rule="evenodd" clip-rule="evenodd" d="M-1 278.723H9.70427V317.312H1.97558C1.97558 307.023 1.97558 296.732 1.97558 286.438H-1V325.024H17.4264V271.008H-1V278.726V278.723ZM-1 352.032V348.173H29.0065V352.032H-1ZM-1 340.454V332.736H29.0065V340.454H-1ZM-1 263.277V259.421H29.0065L29.0066 325.024L25.1486 325.024V263.286L-1 263.277Z" fill="#FEFEFE"/>
<path fill-rule="evenodd" clip-rule="evenodd" d="M380.367 -84V-53.1296H372.641C372.641 -63.4187 372.641 -73.7088 372.641 -84H349.468V-29.9841H399.662V-37.696H357.197V-76.2848H364.926C364.926 -65.9958 364.926 -55.7046 364.926 -45.4112H388.099V-84H380.367ZM276.114 -84H341.753V-22.2592H399.669L399.668 -18.4H337.903L337.905 -80.144H276.114V-84ZM395.811 -84H399.669L399.67 -45.4111L395.811 -45.4112V-84Z" fill="#FEFEFE"/>
<path fill-rule="evenodd" clip-rule="evenodd" d="M233.642 -68.5664V-84H225.913V-60.848H318.589V-22.2592H310.86C310.86 -32.5483 310.86 -42.8395 310.86 -53.1329H287.697V0.883007H337.904V-6.82563H295.419V-45.4144H303.145C303.145 -35.1254 303.145 -24.8353 303.145 -14.5441H326.318V-68.5599L233.642 -68.5664ZM214.34 -84H218.198V-53.1329H279.975V8.60794L337.903 8.60799L337.904 12.4671H276.117V-49.2737H214.34V-84ZM241.361 -84H264.531V-76.2816H241.361C241.361 -78.8544 241.361 -81.4261 241.361 -83.9967V-84ZM272.253 -84H276.114V-80.144H337.905L337.903 -14.544L334.047 -14.5441V-76.2848H272.256L272.253 -84Z" fill="#FEFEFE"/>
<path fill-rule="evenodd" clip-rule="evenodd" d="M171.871 -37.696V-76.2848H179.596C179.596 -65.998 179.596 -55.7078 179.596 -45.4144H202.766V-84H195.034V-53.1329H187.305C187.305 -63.4176 187.305 -73.7066 187.305 -84H164.142V-29.9841H256.815V8.60468H249.083C249.083 -1.6822 249.083 -11.9723 249.083 -22.2657H225.913V31.7501H276.117V24.0317H233.642V-14.5441H241.367C241.367 -4.25501 241.367 6.03513 241.367 16.3263H264.537V-37.6895L171.871 -37.696ZM152.562 -84H156.423V-22.2625H218.197V39.4783H276.117L276.117 43.3376H214.34L214.34 -18.4033H152.562L152.562 -84ZM210.478 -84H214.34V-49.2737H276.117L276.117 16.3263H272.256V-45.4144H210.478V-84Z" fill="#FEFEFE"/>
<path fill-rule="evenodd" clip-rule="evenodd" d="M110.087 -6.82886V-45.4177H117.828C117.828 -35.1286 117.828 -24.8374 117.828 -14.544H141.001V-68.5599H90.7843L90.784 -60.8513L133.26 -60.8512V-22.2624H125.531C125.531 -32.5515 125.531 -42.8416 125.531 -53.1328H102.364V0.883034H195.037V39.4784H187.305C187.305 29.1893 187.305 18.8992 187.305 8.60796H164.142V62.6238H214.339V54.9152H171.87V16.3264H179.596C179.596 26.6133 179.596 36.9034 179.596 47.1968H202.766V-6.8191L110.087 -6.82886ZM94.6454 8.60796H156.423V70.3487L214.34 70.3488L214.34 74.2079H152.562L152.562 12.4672H90.7843V-53.1328H94.6454V8.60796ZM152.562 -80.144L152.562 -18.4033H214.34L214.34 47.1968L210.478 47.1968V-14.544H148.701V-76.2881H90.7843V-80.144H152.562Z" fill="#FEFEFE"/>
<path fill-rule="evenodd" clip-rule="evenodd" d="M48.3088 24.0318V-14.5473H56.0374C56.0374 -4.25821 56.0374 6.03192 56.0374 16.3231H79.2105V-37.6927H29.0066L29.0065 -29.9841L71.4818 -29.9841V8.60798H63.7531C63.7531 -1.68107 63.7531 -11.9723 63.7531 -22.2657H40.5898V31.7502H133.259V70.3487H125.531C125.531 60.0597 125.531 49.7696 125.531 39.4784H102.367V93.4942H152.561V85.7823H110.086V47.1935H117.828C117.828 57.4826 117.828 67.7738 117.828 78.0672H141.001V24.0318H48.3088ZM32.8579 39.4784H94.6451V101.219L152.562 101.219L152.562 105.078H90.7843L90.784 43.3376H29.0066L29.0065 -22.2657L32.8579 -22.2657V39.4784ZM90.7742 -49.2769L90.7742 12.4672L152.562 12.4672L152.562 78.0671L148.7 78.0672V16.3264H86.9229V-45.4176L29.0065 -45.4177L29.0066 -49.2769H90.7742Z" fill="#FEFEFE"/>
<path fill-rule="evenodd" clip-rule="evenodd" d="M-1 47.1935H17.4264V-6.82241H-1V0.892753H9.70427V39.4848H1.97558C1.97558 29.1958 1.97558 18.9045 1.97558 8.61115H-1V47.1935ZM-1 74.2014V70.3454H32.8578V132.089H90.7741L90.7742 135.949H29.0066L29.0065 74.2046L-1 74.2014ZM-1 62.627H71.4817V101.219H63.753C63.753 90.93 63.753 80.6399 63.753 70.3487H40.5897V124.365H90.7839V116.653H48.3086V78.0638H56.0373C56.0373 88.3529 56.0373 98.6441 56.0373 108.937H79.2104V54.9216H-1V62.64V62.627ZM-1 -14.5473V-18.4065H29.0065L29.0066 43.3376H90.784L90.7843 108.938L86.926 108.937V47.1935H25.1486V-14.5473H-1Z" fill="#FEFEFE"/>
<path fill-rule="evenodd" clip-rule="evenodd" d="M-1 93.5007H9.70427V132.09H1.97558C1.97558 121.8 1.97558 111.509 1.97558 101.216H-1V139.808H17.4264V85.7921H-1V93.5105V93.5007ZM-1 166.816V162.976L29.0066 162.976L29.0065 166.816H-1ZM-1 155.241V147.523H29.0065V155.241H-1ZM-1 78.0639V74.2047L29.0065 74.2046L29.0066 139.805H25.1486V78.0639H-1Z" fill="#FEFEFE"/>
<path fill-rule="evenodd" clip-rule="evenodd" d="M743.309 572V564.285H720.139V572H743.309ZM758.753 572H751.034V556.57H708.556V548.851H758.753V572ZM766.472 572V541.133H708.556V537.274H770.333L770.333 572H766.472ZM708.556 572H712.417V564.285H708.556V572Z" fill="#FEFEFE"/>
<path d="M708.555 568.141H646.778V571.997H708.555V568.141Z" fill="#FEFEFE"/>
<path fill-rule="evenodd" clip-rule="evenodd" d="M666.08 456.237V417.648H673.809C673.809 427.937 673.809 438.227 673.809 448.518H696.991V394.502H646.778V402.218H689.253V440.8H681.527C681.527 430.515 681.527 420.225 681.527 409.93H658.358V463.945H751.034V502.534H743.308C743.308 492.245 743.308 481.954 743.308 471.661H720.135V525.676H770.333L770.333 517.984H727.857V479.389H735.583C735.583 489.678 735.583 499.968 735.583 510.259H758.756V456.243L666.08 456.237ZM650.639 471.67H712.416V533.411H770.333L770.333 537.27H708.555V475.53H646.778L646.777 409.93H650.639V471.67ZM708.555 382.918L708.556 444.659H770.333L770.333 510.259H766.471V448.518H704.694V386.778H646.777L646.777 382.918H708.555Z" fill="#FEFEFE"/>
<path fill-rule="evenodd" clip-rule="evenodd" d="M604.302 487.107V448.518H612.021C612.021 458.805 612.021 469.095 612.021 479.389H635.194V425.373H585V433.091H627.475V471.68H619.75C619.75 461.391 619.75 451.101 619.75 440.81H596.58V494.826H689.249V533.414H681.524C681.524 523.128 681.524 512.837 681.524 502.544H658.354V556.56H708.548V548.842H666.08V510.259H673.808C673.808 520.548 673.808 530.838 673.808 541.13H696.991V487.114L604.302 487.107ZM588.861 502.541H650.638V564.282H708.555L708.555 568.141H646.778L646.777 506.4H585L584.999 440.8L588.861 440.8V502.541ZM646.777 413.789L646.778 475.53H708.555L708.555 541.13H704.694V479.389H642.92V417.648L584.999 417.648L585 413.789H646.777Z" fill="#FEFEFE"/>
<path fill-rule="evenodd" clip-rule="evenodd" d="M542.528 517.984V479.386H550.253C550.253 489.675 550.253 499.966 550.253 510.259H573.426V456.243H523.222V463.968H565.697V502.557H557.979C557.979 492.268 557.979 481.978 557.979 471.687H534.805V525.702H627.475V564.291H619.749C619.749 554.002 619.749 543.712 619.749 533.421H596.58V572H604.302V541.133H612.021C612.021 551.418 612.021 561.707 612.021 572H635.194V517.984H542.528ZM585 572V537.27H523.222V471.67H527.083V533.411H588.861V572H585ZM585 444.662L585 506.4H646.777L646.777 572H642.919V510.259H581.142V448.515H523.225V444.659L585 444.662Z" fill="#FEFEFE"/>
<path fill-rule="evenodd" clip-rule="evenodd" d="M480.75 548.845V510.256H488.475C488.475 520.545 488.475 530.835 488.475 541.126H511.648V487.11H461.444V494.829H503.936V533.418H496.211C496.211 523.129 496.211 512.837 496.211 502.544H473.037V556.56H565.707V572H573.429V548.848L480.75 548.845ZM557.978 572H534.808V564.282H557.978C557.978 566.857 557.978 569.428 557.978 571.997V572ZM581.145 572V541.133H519.364V479.386H461.444L461.444 475.526H523.222L523.222 537.27H585V572H581.145ZM523.228 572V568.144H461.448L461.448 502.538L465.309 502.538V564.282H527.083V572H523.228Z" fill="#FEFEFE"/>
<path fill-rule="evenodd" clip-rule="evenodd" d="M418.965 572V541.13H426.691C426.691 551.419 426.691 561.709 426.691 572H449.86V517.984H399.67V525.699H442.145V564.291H434.416C434.416 554.002 434.416 543.711 434.416 533.418H411.25V572H418.965ZM457.579 572V510.256H399.663V506.397H461.44V568.141H523.218V572H457.579ZM399.663 572V533.408H403.521V572H399.663Z" fill="#FEFEFE"/>
<path fill-rule="evenodd" clip-rule="evenodd" d="M372.646 572V564.282H349.473V572H372.646ZM380.364 572V556.563H337.902V548.848H388.096V572H380.364ZM395.809 572V541.13H337.902V537.27H399.68V572H395.809ZM337.892 572H341.754V564.282H337.902L337.892 572Z" fill="#FEFEFE"/>
<path fill-rule="evenodd" clip-rule="evenodd" d="M276.115 571.997V568.138H337.892V571.997H276.115Z" fill="#FEFEFE"/>
<path fill-rule="evenodd" clip-rule="evenodd" d="M48.3123 572V541.126H56.0378C56.0378 551.413 56.0378 561.703 56.0378 571.997H79.2076V517.984H29.0102V525.703H71.4854V564.291H63.7534C63.7534 554.002 63.7534 543.712 63.7534 533.421H40.5902V572H48.3123ZM86.9265 572V510.253H29.0102V506.393H90.7843V568.134H152.562L152.562 572H86.9265ZM29.0102 572V533.408H32.8582V572H29.0102Z" fill="#FEFEFE"/>
<path fill-rule="evenodd" clip-rule="evenodd" d="M-1 572H1.98534V564.278H-1V572ZM-1 556.56V548.842H17.4264V572H9.70427V556.56H-1ZM-1 541.126V537.267H29.0097L29.0102 572H25.1486V541.126H-1Z" fill="#FEFEFE"/>
<path fill-rule="evenodd" clip-rule="evenodd" d="M-1 417.642H17.4264V363.626H-1V371.344H9.70752V409.933H1.97558C1.97558 399.644 1.97558 389.354 1.97558 379.062H-1V417.655V417.642ZM-1 444.649V440.79H32.8578V502.531H90.7741V506.39H29.0097V444.653L-1 444.649ZM-1 433.072H71.4817V471.661H63.753C63.753 461.372 63.753 451.081 63.753 440.79H40.5897V494.806H90.7839V487.091H48.3119V448.512H56.0373C56.0373 458.797 56.0373 469.087 56.0373 479.382H79.2104V425.366H-1V433.085V433.072ZM-1 355.894V352.032H29.0065V413.773H90.7839V479.373H86.926V417.642H25.1486V355.897L-1 355.894Z" fill="#FEFEFE"/>
<path fill-rule="evenodd" clip-rule="evenodd" d="M-1 463.945H9.70752V502.534H1.97558C1.97558 492.245 1.97558 481.955 1.97558 471.664H-1V510.253H17.4264V456.237H-1V463.955V463.945ZM-1 537.264V533.405H29.0097V537.264H-1ZM-1 525.686V517.984H29.0102V525.703L-1 525.686ZM-1 448.512V444.653H29.0097L29.0102 510.253H25.1486V448.512H-1Z" fill="#FEFEFE"/>
</g>
</g>
</svg>
