<svg width="40" height="35" viewBox="0 0 40 35" fill="none" xmlns="http://www.w3.org/2000/svg">
<g clip-path="url(#clip0_1_10714)">
<path d="M39.1371 16.502C35.43 9.26885 28.0909 4.375 19.6875 4.375C11.284 4.375 3.94293 9.27227 0.237853 16.5026C0.0814757 16.812 0 17.1537 0 17.5003C0 17.847 0.0814757 18.1887 0.237853 18.498C3.94498 25.7312 11.284 30.625 19.6875 30.625C28.0909 30.625 35.432 25.7277 39.1371 18.4974C39.2935 18.188 39.3749 17.8463 39.3749 17.4997C39.3749 17.153 39.2935 16.8113 39.1371 16.502V16.502ZM19.6875 27.3438C17.7406 27.3438 15.8374 26.7664 14.2186 25.6848C12.5998 24.6031 11.3381 23.0658 10.593 21.267C9.84798 19.4683 9.65304 17.4891 10.0329 15.5796C10.4127 13.6701 11.3502 11.9161 12.7269 10.5394C14.1036 9.16274 15.8575 8.22522 17.767 7.8454C19.6765 7.46557 21.6558 7.66051 23.4545 8.40556C25.2532 9.15061 26.7906 10.4123 27.8722 12.0311C28.9539 13.6499 29.5312 15.5531 29.5312 17.5C29.5318 18.7929 29.2777 20.0732 28.7832 21.2678C28.2887 22.4624 27.5637 23.5478 26.6495 24.462C25.7353 25.3762 24.6498 26.1012 23.4553 26.5957C22.2607 27.0902 20.9803 27.3444 19.6875 27.3438V27.3438ZM19.6875 10.9375C19.1017 10.9457 18.5197 11.0328 17.9573 11.1966C18.4209 11.8266 18.6434 12.602 18.5844 13.382C18.5254 14.162 18.1888 14.8951 17.6357 15.4482C17.0825 16.0013 16.3495 16.3379 15.5695 16.3969C14.7894 16.4559 14.0141 16.2335 13.384 15.7698C13.0253 17.0916 13.09 18.4926 13.5692 19.7757C14.0484 21.0587 14.9179 22.1592 16.0553 22.9222C17.1927 23.6853 18.5407 24.0724 19.9096 24.0291C21.2785 23.9859 22.5994 23.5145 23.6864 22.6812C24.7734 21.8479 25.5716 20.6947 25.9689 19.384C26.3661 18.0732 26.3423 16.6709 25.9009 15.3744C25.4594 14.0779 24.6224 12.9525 23.5078 12.1566C22.3932 11.3606 21.0571 10.9343 19.6875 10.9375V10.9375Z" fill="#00235A"/>
</g>
<defs>
<clipPath id="clip0_1_10714">
<rect width="39.375" height="35" fill="white"/>
</clipPath>
</defs>
</svg>
