<svg width="60" height="60" viewBox="0 0 60 60" fill="none" xmlns="http://www.w3.org/2000/svg">
<g clip-path="url(#clip0_1_11138)">
<path d="M30 60C29.83 60 29.66 59.965 29.5025 59.895L0.7525 47.395C0.295 47.1975 0 46.7475 0 46.25V13.75C0 13.06 0.56 12.5 1.25 12.5C1.94 12.5 2.5 13.06 2.5 13.75V45.43L30 57.385L57.5 45.43V13.75C57.5 13.06 58.06 12.5 58.75 12.5C59.44 12.5 60 13.06 60 13.75V46.25C60 46.7475 59.705 47.1975 59.2475 47.395L30.4975 59.895C30.34 59.965 30.17 60 30 60V60Z" fill="#FEFEFE"/>
<path d="M30 27.5C29.83 27.5 29.66 27.465 29.5025 27.395L0.7525 14.895C0.295 14.6975 0 14.2475 0 13.75C0 13.2525 0.295 12.8025 0.7525 12.605L29.5025 0.105C29.82 -0.035 30.18 -0.035 30.4975 0.105L59.2475 12.605C59.705 12.8025 60 13.2525 60 13.75C60 14.2475 59.705 14.6975 59.2475 14.895L30.4975 27.395C30.34 27.465 30.17 27.5 30 27.5V27.5ZM4.385 13.75L30 24.8875L55.615 13.75L30 2.6125L4.385 13.75Z" fill="#FEFEFE"/>
<path d="M58.7497 47.5C58.5847 47.5 58.4122 47.4675 58.2522 47.395L55.9597 46.3975C55.3247 46.1225 55.0372 45.385 55.3122 44.7525C55.5822 44.12 56.3272 43.8325 56.9547 44.105L59.2472 45.1025C59.8822 45.3775 60.1697 46.115 59.8947 46.7475C59.6922 47.22 59.2297 47.5 58.7497 47.5V47.5Z" fill="#FEFEFE"/>
<path d="M50.8825 44.0775C50.7175 44.0775 50.545 44.045 50.385 43.9725L46.6675 42.3575C46.035 42.0825 45.745 41.345 46.0175 40.7125C46.2925 40.08 47.035 39.7875 47.6625 40.065L51.38 41.68C52.0125 41.955 52.3025 42.6925 52.03 43.325C51.8225 43.7975 51.3625 44.0775 50.8825 44.0775V44.0775ZM41.5875 40.0375C41.4225 40.0375 41.25 40.005 41.09 39.9325L37.3725 38.3175C36.74 38.0425 36.45 37.305 36.7225 36.6725C36.9975 36.04 37.74 35.7475 38.3675 36.025L42.085 37.64C42.7175 37.915 43.0075 38.6525 42.735 39.285C42.53 39.7575 42.0675 40.0375 41.5875 40.0375Z" fill="#FEFEFE"/>
<path d="M32.2922 35.9976C32.1272 35.9976 31.9547 35.9651 31.7947 35.8926L29.9997 35.1126L28.2047 35.8926C27.5772 36.1676 26.8322 35.8776 26.5622 35.2451C26.2872 34.6126 26.5747 33.8751 27.2097 33.6001L29.5022 32.6026C29.8197 32.4626 30.1797 32.4626 30.4972 32.6026L32.7897 33.6001C33.4247 33.8751 33.7122 34.6126 33.4372 35.2451C33.2347 35.7176 32.7722 35.9976 32.2922 35.9976V35.9976Z" fill="#FEFEFE"/>
<path d="M9.11707 44.0775C8.63707 44.0775 8.17457 43.7975 7.96957 43.325C7.69707 42.6925 7.98707 41.955 8.61957 41.68L12.3371 40.065C12.9671 39.7875 13.7071 40.08 13.9821 40.7125C14.2546 41.345 13.9646 42.0825 13.3321 42.3575L9.61707 43.975C9.45457 44.045 9.28457 44.0775 9.11707 44.0775V44.0775ZM18.4121 40.0375C17.9321 40.0375 17.4696 39.7575 17.2646 39.285C16.9921 38.6525 17.2821 37.915 17.9146 37.64L21.6321 36.025C22.2621 35.75 23.0021 36.04 23.2771 36.6725C23.5496 37.305 23.2596 38.0425 22.6271 38.3175L18.9096 39.9325C18.7496 40.005 18.5796 40.0375 18.4121 40.0375Z" fill="#FEFEFE"/>
<path d="M1.25019 47.5C0.770194 47.5 0.307693 47.22 0.105193 46.7475C-0.169807 46.115 0.117693 45.38 0.752694 45.1025L3.04519 44.105C3.67269 43.8325 4.41519 44.12 4.68769 44.7525C4.96269 45.385 4.67519 46.1225 4.04019 46.3975L1.74769 47.395C1.58769 47.4675 1.41519 47.5 1.25019 47.5V47.5Z" fill="#FEFEFE"/>
<path d="M30 60C29.31 60 28.75 59.44 28.75 58.75V26.25C28.75 25.56 29.31 25 30 25C30.69 25 31.25 25.56 31.25 26.25V58.75C31.25 59.44 30.69 60 30 60Z" fill="#FEFEFE"/>
<path d="M30 23.75C29.31 23.75 28.75 23.19 28.75 22.5V18.75C28.75 18.06 29.31 17.5 30 17.5C30.69 17.5 31.25 18.06 31.25 18.75V22.5C31.25 23.19 30.69 23.75 30 23.75ZM30 15C29.31 15 28.75 14.44 28.75 13.75V10C28.75 9.31 29.31 8.75 30 8.75C30.69 8.75 31.25 9.31 31.25 10V13.75C31.25 14.44 30.69 15 30 15ZM30 6.25C29.31 6.25 28.75 5.69 28.75 5V1.25C28.75 0.56 29.31 0 30 0C30.69 0 31.25 0.56 31.25 1.25V5C31.25 5.69 30.69 6.25 30 6.25Z" fill="#FEFEFE"/>
</g>
<defs>
<clipPath id="clip0_1_11138">
<rect width="60" height="60" fill="white"/>
</clipPath>
</defs>
</svg>
