<svg width="35" height="35" viewBox="0 0 35 35" fill="none" xmlns="http://www.w3.org/2000/svg">
<path d="M17.5 8.74993C19.209 8.74993 20.8724 8.9721 22.4902 9.41643C24.1081 9.86077 25.6576 10.4703 27.1387 11.245C28.6198 12.0198 30.0212 12.9483 31.3428 14.0307C32.6644 15.113 33.8835 16.2695 35 17.4999C33.8835 18.7532 32.6701 19.9096 31.3599 20.9692C30.0496 22.0287 28.6483 22.9516 27.1558 23.7377C25.6632 24.5239 24.1081 25.1391 22.4902 25.5834C20.8724 26.0278 19.209 26.2499 17.5 26.2499C15.791 26.2499 14.1276 26.0278 12.5098 25.5834C10.8919 25.1391 9.34245 24.5296 7.86133 23.7548C6.38021 22.9801 4.97314 22.0572 3.64014 20.9863C2.30713 19.9153 1.09375 18.7532 0 17.4999C1.10514 16.2581 2.31852 15.1017 3.64014 14.0307C4.96175 12.9597 6.36312 12.0369 7.84424 11.2621C9.32536 10.4874 10.8805 9.87216 12.5098 9.41643C14.139 8.9607 15.8024 8.73854 17.5 8.74993ZM17.5 23.7548C18.3659 23.7548 19.1748 23.5896 19.9268 23.2592C20.6787 22.9288 21.3395 22.4845 21.9092 21.9262C22.4788 21.3679 22.9289 20.7071 23.2593 19.9438C23.5897 19.1804 23.7549 18.3658 23.7549 17.4999C23.7549 16.634 23.5897 15.8251 23.2593 15.0732C22.9289 14.3212 22.4845 13.6604 21.9263 13.0907C21.368 12.5211 20.7072 12.0711 19.9438 11.7407C19.1805 11.4102 18.3659 11.245 17.5 11.245C16.6341 11.245 15.8252 11.4102 15.0732 11.7407C14.3213 12.0711 13.6605 12.5154 13.0908 13.0737C12.5212 13.6319 12.0711 14.2927 11.7407 15.0561C11.4103 15.8194 11.2451 16.634 11.2451 17.4999C11.2451 18.3658 11.4103 19.1747 11.7407 19.9267C12.0711 20.6786 12.5155 21.3394 13.0737 21.9091C13.632 22.4788 14.2928 22.9288 15.0562 23.2592C15.8195 23.5896 16.6341 23.7548 17.5 23.7548ZM11.0913 22.832C10.4647 22.08 9.98617 21.2483 9.65576 20.3368C9.32536 19.4254 9.16016 18.4797 9.16016 17.4999C9.16016 16.5201 9.32536 15.5745 9.65576 14.663C9.98617 13.7516 10.4647 12.9199 11.0913 12.1679C9.56462 12.7717 8.13477 13.5237 6.80176 14.4238C5.46875 15.3238 4.2098 16.3492 3.0249 17.4999C4.1984 18.6393 5.45166 19.6589 6.78467 20.559C8.11768 21.4591 9.55322 22.2167 11.0913 22.832ZM31.9751 17.4999C30.8016 16.3606 29.5483 15.3409 28.2153 14.4408C26.8823 13.5408 25.4468 12.7831 23.9087 12.1679C24.5353 12.9199 25.0138 13.7516 25.3442 14.663C25.6746 15.5745 25.8398 16.5201 25.8398 17.4999C25.8398 18.4797 25.6746 19.4254 25.3442 20.3368C25.0138 21.2483 24.5353 22.08 23.9087 22.832C25.4354 22.2281 26.8652 21.4762 28.1982 20.5761C29.5312 19.676 30.7902 18.6506 31.9751 17.4999ZM17.5 14.5776C17.8988 14.5776 18.2747 14.6516 18.6279 14.7997C18.9811 14.9478 19.2887 15.1586 19.5508 15.4321C19.8128 15.7055 20.0236 16.0188 20.1831 16.372C20.3426 16.7252 20.4224 17.1012 20.4224 17.4999C20.4224 17.8987 20.3483 18.2747 20.2002 18.6279C20.0521 18.981 19.8413 19.2944 19.5679 19.5678C19.2944 19.8412 18.9811 20.0463 18.6279 20.183C18.2747 20.3198 17.8988 20.3995 17.5 20.4223C17.1012 20.4223 16.7253 20.3482 16.3721 20.2001C16.0189 20.052 15.7056 19.8412 15.4321 19.5678C15.1587 19.2944 14.9536 18.9867 14.8169 18.6449C14.6802 18.3032 14.6004 17.9215 14.5776 17.4999C14.5776 17.1012 14.6517 16.7252 14.7998 16.372C14.9479 16.0188 15.1587 15.7112 15.4321 15.4491C15.7056 15.1871 16.0132 14.9763 16.355 14.8168C16.6968 14.6573 17.0785 14.5776 17.5 14.5776Z" fill="#00235A"/>
</svg>
