<svg width="20" height="25" viewBox="0 0 20 25" fill="none" xmlns="http://www.w3.org/2000/svg">
<path d="M15.9458 13.1201C15.9358 11.3281 16.7664 9.97559 18.4475 8.97949C17.5069 7.66602 16.0859 6.94336 14.2096 6.80176C12.4334 6.66504 10.4921 7.8125 9.78166 7.8125C9.03115 7.8125 7.30999 6.85059 5.95908 6.85059C3.1672 6.89453 0.200195 9.02344 0.200195 13.3545C0.200195 14.6338 0.440357 15.9554 0.920681 17.3193C1.56111 19.1113 3.87267 23.5059 6.2843 23.4326C7.54515 23.4033 8.43575 22.5586 10.0769 22.5586C11.6679 22.5586 12.4935 23.4326 13.8994 23.4326C16.3311 23.3984 18.4225 19.4043 19.0329 17.6074C15.7707 16.1084 15.9458 13.2129 15.9458 13.1201V13.1201ZM13.1139 5.10254C14.4798 3.52051 14.3547 2.08008 14.3147 1.5625C13.1089 1.63086 11.713 2.36328 10.9174 3.2666C10.0418 4.2334 9.52649 5.42969 9.63656 6.77734C10.9424 6.875 12.1332 6.2207 13.1139 5.10254V5.10254Z" fill="#FEFEFE"/>
</svg>
