<svg width="23" height="25" viewBox="0 0 23 25" fill="none" xmlns="http://www.w3.org/2000/svg">
<g clip-path="url(#clip0_1_10071)">
<path d="M12.1745 0.317383C6.05143 0.317383 0 3.65723 0 9.0625C0 12.5 2.36328 14.4531 3.79557 14.4531C4.38639 14.4531 4.72656 13.1055 4.72656 12.7246C4.72656 12.2705 3.31217 11.3037 3.31217 9.41406C3.31217 5.48828 6.96451 2.70508 11.6911 2.70508C15.7552 2.70508 18.763 4.59473 18.763 8.06641C18.763 10.6592 17.4919 15.5225 13.374 15.5225C11.888 15.5225 10.6169 14.6436 10.6169 13.3838C10.6169 11.5381 12.1924 9.75098 12.1924 7.84668C12.1924 4.61426 6.58854 5.2002 6.58854 9.10645C6.58854 9.92676 6.71386 10.835 7.16145 11.582C6.33789 14.4824 4.65494 18.8037 4.65494 21.792C4.65494 22.7148 4.81608 23.623 4.9235 24.5459C5.12641 24.7314 5.02495 24.7119 5.33528 24.6191C8.34309 21.25 8.23567 20.5908 9.59635 16.1816C10.3304 17.3242 12.2282 17.9395 13.7321 17.9395C20.07 17.9395 22.9167 12.8857 22.9167 8.33008C22.9167 3.48145 17.7962 0.317383 12.1745 0.317383Z" fill="#FEFEFE"/>
</g>
<defs>
<clipPath id="clip0_1_10071">
<rect width="22.9167" height="25" fill="white"/>
</clipPath>
</defs>
</svg>
