<svg width="35" height="35" viewBox="0 0 35 35" fill="none" xmlns="http://www.w3.org/2000/svg">
<g clip-path="url(#clip0_1_10712)">
<path d="M17.5 2.1875C7.83398 2.1875 0 8.55176 0 16.4062C0 19.7969 1.46289 22.9004 3.89648 25.3408C3.04199 28.7861 0.18457 31.8555 0.150391 31.8896C0 32.0469 -0.0410156 32.2793 0.0478516 32.4844C0.136719 32.6895 0.328125 32.8125 0.546875 32.8125C5.0791 32.8125 8.47656 30.6387 10.1582 29.2988C12.3936 30.1396 14.875 30.625 17.5 30.625C27.166 30.625 35 24.2607 35 16.4062C35 8.55176 27.166 2.1875 17.5 2.1875ZM8.75 18.5938C7.54004 18.5938 6.5625 17.6162 6.5625 16.4062C6.5625 15.1963 7.54004 14.2188 8.75 14.2188C9.95996 14.2188 10.9375 15.1963 10.9375 16.4062C10.9375 17.6162 9.95996 18.5938 8.75 18.5938ZM17.5 18.5938C16.29 18.5938 15.3125 17.6162 15.3125 16.4062C15.3125 15.1963 16.29 14.2188 17.5 14.2188C18.71 14.2188 19.6875 15.1963 19.6875 16.4062C19.6875 17.6162 18.71 18.5938 17.5 18.5938ZM26.25 18.5938C25.04 18.5938 24.0625 17.6162 24.0625 16.4062C24.0625 15.1963 25.04 14.2188 26.25 14.2188C27.46 14.2188 28.4375 15.1963 28.4375 16.4062C28.4375 17.6162 27.46 18.5938 26.25 18.5938Z" fill="#00235A"/>
</g>
<defs>
<clipPath id="clip0_1_10712">
<rect width="35" height="35" fill="white"/>
</clipPath>
</defs>
</svg>
