<svg width="1635" height="185" viewBox="0 0 1635 185" fill="none" xmlns="http://www.w3.org/2000/svg">
<path d="M101.964 77.9863H107.493V104.659H101.964V77.9863Z" fill="#FEFEFE"/>
<path d="M110.59 95.5217C110.59 93.6028 111.159 91.727 112.224 90.1322C113.29 88.5374 114.805 87.2954 116.576 86.5636C118.347 85.8318 120.296 85.6431 122.175 86.0216C124.053 86.4 125.777 87.3284 127.128 88.6893C128.479 90.0501 129.396 91.7819 129.764 93.6654C130.131 95.5488 129.931 97.499 129.19 99.2687C128.449 101.038 127.201 102.548 125.602 103.606C124.003 104.664 122.127 105.223 120.211 105.212C118.94 105.222 117.68 104.978 116.505 104.494C115.329 104.01 114.262 103.295 113.366 102.393C112.47 101.49 111.763 100.418 111.286 99.2376C110.809 98.0577 110.573 96.7944 110.59 95.5217V95.5217ZM124.45 95.5217C124.428 94.6944 124.164 93.8919 123.689 93.2146C123.214 92.5372 122.55 92.0151 121.781 91.7134C121.011 91.4118 120.17 91.3441 119.362 91.5188C118.555 91.6935 117.816 92.1028 117.239 92.6955C116.663 93.2883 116.273 94.0381 116.12 94.8513C115.967 95.6645 116.056 96.505 116.377 97.2675C116.698 98.0301 117.237 98.681 117.925 99.1387C118.614 99.5964 119.421 99.8407 120.248 99.841C120.81 99.852 121.369 99.7466 121.889 99.5315C122.41 99.3164 122.88 98.9961 123.271 98.5907C123.662 98.1854 123.965 97.7036 124.162 97.1755C124.358 96.6475 124.444 96.0845 124.413 95.5217H124.45Z" fill="#FEFEFE"/>
<path d="M151.71 86.3849V103.754C151.71 109.882 146.918 112.485 142.07 112.485C140.361 112.626 138.645 112.285 137.118 111.503C135.591 110.72 134.312 109.526 133.426 108.055L138.089 105.36C138.467 106.123 139.068 106.753 139.812 107.165C140.557 107.577 141.408 107.752 142.255 107.667C142.794 107.734 143.341 107.68 143.857 107.51C144.373 107.341 144.845 107.059 145.239 106.685C145.634 106.311 145.941 105.854 146.139 105.348C146.336 104.841 146.42 104.297 146.383 103.754V102.074C145.74 102.856 144.923 103.476 143.999 103.886C143.074 104.296 142.067 104.485 141.057 104.437C138.612 104.437 136.268 103.465 134.54 101.734C132.812 100.003 131.841 97.6557 131.841 95.208C131.841 92.7603 132.812 90.4128 134.54 88.682C136.268 86.9512 138.612 85.9788 141.057 85.9788C142.067 85.931 143.074 86.1196 143.999 86.5297C144.923 86.9399 145.74 87.5602 146.383 88.3415V86.4957L151.71 86.3849ZM146.383 95.1526C146.42 94.2695 146.192 93.3956 145.729 92.6432C145.266 91.8908 144.589 91.2944 143.784 90.9306C142.98 90.5669 142.085 90.4524 141.215 90.6019C140.345 90.7514 139.54 91.1581 138.903 91.7696C138.266 92.3812 137.826 93.1697 137.64 94.0336C137.453 94.8976 137.53 95.7976 137.858 96.6179C138.187 97.4382 138.753 98.1413 139.484 98.6367C140.215 99.1321 141.077 99.3973 141.96 99.398C142.536 99.4396 143.114 99.3597 143.657 99.1636C144.2 98.9674 144.696 98.6593 145.113 98.2592C145.53 97.8592 145.858 97.376 146.077 96.8408C146.296 96.3057 146.4 95.7306 146.383 95.1526V95.1526Z" fill="#FEFEFE"/>
<path d="M154.826 95.5217C154.826 93.6043 155.394 91.73 156.458 90.136C157.522 88.542 159.034 87.2999 160.804 86.567C162.573 85.8341 164.519 85.6433 166.397 86.0187C168.275 86.3941 169.999 87.3189 171.351 88.676C172.704 90.0331 173.624 91.7615 173.995 93.6425C174.367 95.5235 174.172 97.4726 173.437 99.243C172.702 101.013 171.459 102.526 169.865 103.588C168.271 104.651 166.399 105.216 164.484 105.212C163.211 105.225 161.948 104.982 160.769 104.5C159.591 104.017 158.52 103.303 157.621 102.4C156.721 101.498 156.01 100.425 155.531 99.2433C155.051 98.0621 154.811 96.7969 154.826 95.5217ZM168.686 95.5217C168.665 94.6937 168.399 93.8904 167.924 93.2127C167.448 92.535 166.783 92.0129 166.013 91.7118C165.242 91.4108 164.4 91.3441 163.592 91.5203C162.783 91.6965 162.045 92.1076 161.469 92.7022C160.893 93.2968 160.505 94.0483 160.354 94.8627C160.203 95.6771 160.295 96.5181 160.619 97.2803C160.942 98.0426 161.484 98.6921 162.175 99.1476C162.866 99.6031 163.675 99.8443 164.502 99.841C165.065 99.852 165.624 99.7466 166.144 99.5315C166.664 99.3164 167.134 98.9961 167.525 98.5907C167.916 98.1854 168.22 97.7036 168.416 97.1755C168.613 96.6475 168.698 96.0845 168.668 95.5217H168.686Z" fill="#FEFEFE"/>
<path d="M176.704 81.4935C176.704 80.8436 176.897 80.2084 177.257 79.6681C177.618 79.1278 178.13 78.7067 178.729 78.458C179.329 78.2093 179.989 78.1442 180.625 78.271C181.261 78.3978 181.846 78.7107 182.305 79.1702C182.764 79.6297 183.076 80.2151 183.203 80.8525C183.329 81.4898 183.264 82.1504 183.016 82.7508C182.768 83.3512 182.347 83.8643 181.808 84.2253C181.268 84.5863 180.634 84.779 179.985 84.779C179.118 84.7694 178.289 84.4202 177.676 83.8061C177.062 83.192 176.714 82.3619 176.704 81.4935V81.4935ZM177.239 86.3849H182.768V104.659H177.239V86.3849Z" fill="#FEFEFE"/>
<path d="M206.434 95.5218C206.496 96.7371 206.317 97.9527 205.908 99.0986C205.499 100.244 204.868 101.298 204.051 102.199C203.234 103.099 202.247 103.829 201.147 104.347C200.047 104.864 198.856 105.158 197.642 105.212C196.612 105.281 195.58 105.116 194.622 104.729C193.665 104.342 192.807 103.744 192.112 102.979V112.005H186.583V86.3849H192.112V88.1016C192.808 87.3387 193.666 86.7432 194.624 86.3596C195.581 85.976 196.613 85.8143 197.642 85.8866C198.851 85.9411 200.037 86.2336 201.134 86.7473C202.23 87.261 203.214 87.9859 204.03 88.8807C204.847 89.7754 205.479 90.8224 205.892 91.9619C206.304 93.1014 206.488 94.311 206.434 95.5218V95.5218ZM200.904 95.5218C200.883 94.6645 200.609 93.8327 200.117 93.1307C199.625 92.4287 198.937 91.8876 198.14 91.5754C197.342 91.2632 196.47 91.1936 195.633 91.3755C194.796 91.5574 194.032 91.9826 193.435 92.5979C192.839 93.2131 192.437 93.991 192.28 94.834C192.123 95.677 192.218 96.5477 192.553 97.3369C192.888 98.1262 193.448 98.7988 194.163 99.2705C194.878 99.7422 195.717 99.9921 196.573 99.9887C197.159 100.014 197.745 99.9141 198.29 99.6967C198.835 99.4793 199.329 99.1488 199.738 98.727C200.147 98.3053 200.462 97.8017 200.663 97.2493C200.864 96.6969 200.946 96.1082 200.904 95.5218V95.5218Z" fill="#FEFEFE"/>
<path d="M223.262 99.1765C223.262 103.385 219.576 105.175 215.668 105.175C214.075 105.319 212.474 104.981 211.075 104.204C209.675 103.428 208.54 102.249 207.816 100.819L212.572 98.1244C212.76 98.783 213.169 99.3569 213.729 99.75C214.289 100.143 214.967 100.332 215.65 100.284C216.958 100.284 217.622 99.8779 217.622 99.1396C217.622 97.1277 208.646 98.1982 208.646 91.867C208.646 87.8801 212 85.8866 215.797 85.8866C217.241 85.8218 218.674 86.1498 219.946 86.8355C221.219 87.5212 222.282 88.5392 223.022 89.7813L218.267 92.2916C218.057 91.8154 217.714 91.4103 217.279 91.1253C216.844 90.8404 216.336 90.6877 215.816 90.6857C214.857 90.6857 214.286 91.0549 214.286 91.7009C214.286 93.8052 223.262 92.4208 223.262 99.1765Z" fill="#FEFEFE"/>
<path d="M243.298 86.3849V104.659H237.768V102.942C237.14 103.702 236.343 104.303 235.44 104.698C234.537 105.092 233.554 105.268 232.571 105.212C228.884 105.212 225.732 102.573 225.732 97.6444V86.3849H231.262V96.8138C231.218 97.2498 231.27 97.6901 231.413 98.1042C231.556 98.5183 231.787 98.8963 232.09 99.2122C232.394 99.5281 232.762 99.7744 233.169 99.9339C233.577 100.093 234.014 100.163 234.451 100.136C236.441 100.136 237.842 98.955 237.842 96.4446V86.3849H243.298Z" fill="#FEFEFE"/>
<path d="M274.631 93.436V104.659H269.101V93.9159C269.101 92.0701 268.235 90.9257 266.484 90.9257C264.733 90.9257 263.627 92.1993 263.627 94.3589V104.659H258.097V93.9159C258.097 92.0701 257.231 90.9257 255.48 90.9257C253.729 90.9257 252.623 92.1993 252.623 94.3589V104.659H247.094V86.385H252.623V88.0647C253.196 87.3226 253.944 86.7349 254.8 86.3546C255.655 85.9744 256.593 85.8135 257.526 85.8866C258.461 85.8377 259.393 86.0333 260.23 86.4539C261.067 86.8746 261.78 87.506 262.3 88.2862C262.907 87.4711 263.711 86.8235 264.636 86.4039C265.561 85.9843 266.577 85.8063 267.59 85.8866C271.903 85.8866 274.631 88.8768 274.631 93.436Z" fill="#FEFEFE"/>
<path d="M69.0265 73.1872V65.3424H44.3281V119.241H69.0265V111.396C63.967 111.396 59.1148 109.383 55.5372 105.8C51.9596 102.218 49.9498 97.3583 49.9498 92.2915C49.9498 87.2248 51.9596 82.3655 55.5372 78.7827C59.1148 75.2 63.967 73.1872 69.0265 73.1872V73.1872Z" fill="#FEFEFE"/>
<path d="M69.0264 73.1872V111.396C74.0858 111.396 78.9381 109.383 82.5157 105.8C86.0933 102.218 88.1031 97.3584 88.1031 92.2916C88.1031 87.2248 86.0933 82.3655 82.5157 78.7828C78.9381 75.2 74.0858 73.1872 69.0264 73.1872V73.1872Z" fill="#FEFEFE"/>
<path d="M279.276 86.2741C281.515 86.2741 283.331 84.456 283.331 82.2133C283.331 79.9706 281.515 78.1525 279.276 78.1525C277.036 78.1525 275.221 79.9706 275.221 82.2133C275.221 84.456 277.036 86.2741 279.276 86.2741Z" fill="#FEFEFE"/>
<path d="M739.497 76.399H743.174V102.093H754.204V105.785H739.497V76.399ZM765.658 76.399C767.839 76.399 769.972 77.0485 771.786 78.2654C773.6 79.4824 775.013 81.212 775.848 83.2357C776.683 85.2594 776.902 87.4862 776.476 89.6346C776.05 91.7829 775 93.7563 773.457 95.3051C771.915 96.854 769.949 97.9088 767.809 98.3361C765.67 98.7635 763.452 98.5441 761.436 97.7059C759.421 96.8677 757.698 95.4481 756.486 93.6269C755.274 91.8056 754.627 89.6644 754.627 87.4739C754.627 86.0196 754.912 84.5794 755.467 83.2357C756.021 81.892 756.834 80.6712 757.858 79.6427C758.882 78.6143 760.098 77.7986 761.436 77.242C762.775 76.6854 764.209 76.399 765.658 76.399V76.399ZM765.658 94.8573C767.112 94.8573 768.534 94.4242 769.743 93.6129C770.952 92.8017 771.895 91.6485 772.451 90.2994C773.008 88.9503 773.154 87.4658 772.87 86.0335C772.586 84.6013 771.886 83.2857 770.857 82.2531C769.829 81.2206 768.519 80.5174 767.092 80.2325C765.666 79.9476 764.187 80.0938 762.843 80.6526C761.5 81.2115 760.351 82.1578 759.543 83.372C758.735 84.5862 758.304 86.0137 758.304 87.4739C758.314 89.4257 759.093 91.2942 760.471 92.6709C761.849 94.0476 763.714 94.8204 765.658 94.8203V94.8573ZM758.304 102.13H773.011V105.822H758.304V102.13ZM805.367 105.822H801.69V103.182C799.319 104.848 796.496 105.744 793.601 105.748C791.133 105.764 788.701 105.157 786.528 103.982C784.355 102.806 782.511 101.101 781.167 99.0226C779.823 96.9442 779.022 94.5595 778.837 92.0884C778.652 89.6173 779.089 87.1392 780.109 84.8824C781.128 82.6255 782.697 80.6626 784.67 79.1743C786.644 77.686 788.958 76.7204 791.401 76.3663C793.844 76.0121 796.336 76.2809 798.648 77.1479C800.96 78.0149 803.018 79.4522 804.632 81.3273L801.929 83.7454C800.702 82.3677 799.151 81.3204 797.417 80.6988C795.683 80.0772 793.822 79.9011 792.004 80.1867C790.185 80.4722 788.466 81.2102 787.004 82.3335C785.542 83.4568 784.384 84.9296 783.634 86.6176C782.884 88.3056 782.567 90.1553 782.711 91.9979C782.856 93.8405 783.457 95.6175 784.461 97.167C785.465 98.7164 786.838 99.989 788.457 100.869C790.076 101.748 791.889 102.207 793.73 102.204C795.258 102.207 796.768 101.879 798.158 101.241C799.548 100.604 800.784 99.6733 801.782 98.512H791.855V94.8203H805.404L805.367 105.822ZM818.898 76.4728C821.079 76.4728 823.212 77.1223 825.026 78.3393C826.84 79.5562 828.253 81.2859 829.088 83.3096C829.923 85.3333 830.142 87.5601 829.716 89.7084C829.29 91.8567 828.24 93.8301 826.697 95.379C825.155 96.9278 823.189 97.9826 821.05 98.41C818.91 98.8373 816.692 98.618 814.676 97.7797C812.661 96.9415 810.938 95.522 809.726 93.7007C808.514 91.8794 807.867 89.7382 807.867 87.5478C807.857 86.0841 808.137 84.633 808.689 83.2783C809.241 81.9237 810.056 80.6924 811.085 79.6557C812.114 78.6189 813.337 77.7973 814.685 77.2383C816.032 76.6793 817.477 76.394 818.934 76.399L818.898 76.4728ZM818.898 94.9311C820.352 94.9311 821.774 94.4981 822.983 93.6868C824.192 92.8755 825.135 91.7224 825.691 90.3733C826.248 89.0241 826.394 87.5396 826.11 86.1074C825.826 84.6751 825.126 83.3596 824.097 82.327C823.069 81.2944 821.759 80.5912 820.332 80.3063C818.906 80.0214 817.427 80.1676 816.083 80.7265C814.74 81.2853 813.591 82.2316 812.783 83.4458C811.975 84.66 811.544 86.0875 811.544 87.5478C811.573 89.4931 812.366 91.3483 813.749 92.7101C815.133 94.0719 816.997 94.8303 818.934 94.8203L818.898 94.9311ZM811.544 102.204H826.251V105.895H811.544V102.204ZM833.844 76.399H837.521V105.748H833.844V76.399ZM842.613 76.399H846.29C846.479 76.3788 846.67 76.3788 846.86 76.399C848.4 76.2312 849.957 76.391 851.432 76.8678C852.906 77.3447 854.264 78.128 855.416 79.1666C856.569 80.2053 857.491 81.4761 858.122 82.8963C858.754 84.3165 859.08 85.8542 859.08 87.4093C859.08 88.9645 858.754 90.5022 858.122 91.9224C857.491 93.3426 856.569 94.6134 855.416 95.652C854.264 96.6907 852.906 97.474 851.432 97.9508C849.957 98.4277 848.4 98.5874 846.86 98.4197H846.29V105.803H842.613V76.399ZM846.29 80.0906V94.6911H846.86C847.898 94.83 848.954 94.7444 849.957 94.4402C850.96 94.136 851.887 93.6201 852.675 92.9271C853.463 92.2341 854.095 91.38 854.527 90.4221C854.96 89.4641 855.184 88.4243 855.184 87.3724C855.184 86.3205 854.96 85.2808 854.527 84.3228C854.095 83.3648 853.463 82.5107 852.675 81.8177C851.887 81.1248 850.96 80.6089 849.957 80.3046C848.954 80.0004 847.898 79.9149 846.86 80.0537C846.659 80.0746 846.462 80.118 846.271 80.1829L846.29 80.0906ZM872.781 78.5217L870.06 80.6813C869.591 80.1888 868.991 79.8411 868.332 79.679C867.672 79.5169 866.98 79.5472 866.338 79.7662C865.695 79.9853 865.127 80.384 864.702 80.9156C864.277 81.4472 864.012 82.0895 863.938 82.7671V83.0624C863.938 84.6867 865.06 85.7758 867.248 85.9234C875.667 86.4403 879.528 90.4088 879.528 95.651V95.9832C879.311 98.058 878.504 100.026 877.205 101.654C875.905 103.282 874.168 104.501 872.198 105.166C870.229 105.831 868.111 105.914 866.095 105.405C864.08 104.897 862.253 103.817 860.831 102.296L863.644 100.118C864.299 100.822 865.098 101.375 865.987 101.739C866.876 102.102 867.833 102.267 868.792 102.222C870.562 102.316 872.301 101.719 873.644 100.557C874.986 99.394 875.83 97.7555 875.998 95.9832V95.7248C875.998 90.7964 871.182 89.892 867.009 89.4859C863.148 89.1167 860.372 86.6987 860.372 83.2101V83.0624C860.508 81.2461 861.334 79.5517 862.678 78.3289C864.022 77.1061 865.783 76.4483 867.597 76.4912C868.558 76.4628 869.514 76.637 870.404 77.0026C871.294 77.3682 872.097 77.9172 872.763 78.614L872.781 78.5217ZM893.923 102.001C898.5 102.001 902.122 97.0353 902.122 90.9256V76.159H905.799V90.9256C905.799 99.0473 900.504 105.6 893.996 105.6C887.488 105.6 882.194 99.0473 882.194 90.9256V76.159H885.87V90.9256C885.723 97.1276 889.345 102.093 893.904 102.093L893.923 102.001ZM934.018 105.692H930.341V87.4186L921.866 98.4936L913.391 87.4186V105.748H909.715V76.399L921.848 92.4392L933.981 76.399L934.018 105.692Z" fill="#FEFEFE"/>
<path d="M721.848 71.9874C721.848 69.3243 720.795 66.7702 718.919 64.8871C717.044 63.004 714.5 61.946 711.848 61.946C709.195 61.946 706.651 63.004 704.776 64.8871C702.9 66.7702 701.847 69.3243 701.847 71.9874V102.351L710.083 108.276V122.711H713.612V108.276L721.848 102.351V71.9874ZM718.319 88.9691L713.612 93.6944V89.2644L718.319 84.5391V88.9691ZM705.45 84.5391L710.156 89.2644V93.6944L705.45 88.9691V84.5391ZM718.319 79.5184L711.848 86.0157L705.376 79.3707V74.9407L711.848 81.4381L718.319 74.9407V79.5184ZM711.848 65.49C713.271 65.4964 714.653 65.9709 715.782 66.8411C716.911 67.7112 717.724 68.9289 718.098 70.3077L711.848 76.565L705.597 70.3077C705.957 68.9152 706.765 67.681 707.895 66.7965C709.025 65.9121 710.415 65.4269 711.848 65.4162V65.49ZM705.376 100.561V93.9159L710.083 98.6412V103.92L705.376 100.561ZM713.612 103.939V98.6412L718.319 93.9159V100.542L713.612 103.939Z" fill="#FEFEFE"/>
<path d="M1425.59 81.3458H1431.1V103.736H1425.59V81.3458ZM1433.29 95.2818C1433.29 89.7443 1436.67 86.4403 1441.89 86.4403C1447.12 86.4403 1450.5 89.7443 1450.5 95.2818C1450.5 100.819 1447.19 104.142 1441.89 104.142C1436.6 104.142 1433.29 100.912 1433.29 95.2818ZM1444.96 95.2818C1444.96 92.2362 1443.77 90.4457 1441.89 90.4457C1440.02 90.4457 1438.84 92.2915 1438.84 95.2818C1438.84 98.272 1440 100.081 1441.89 100.081C1443.79 100.081 1444.96 98.3828 1444.96 95.3002V95.2818ZM1452.58 104.825H1457.87C1458.12 105.387 1458.55 105.852 1459.08 106.151C1459.62 106.451 1460.24 106.568 1460.85 106.486C1462.94 106.486 1464.05 105.342 1464.05 103.68V100.579H1463.94C1463.5 101.53 1462.78 102.326 1461.89 102.866C1461 103.405 1459.96 103.663 1458.92 103.606C1454.89 103.606 1452.23 100.524 1452.23 95.2264C1452.23 89.9289 1454.76 86.5879 1458.99 86.5879C1460.07 86.5456 1461.13 86.8341 1462.04 87.4147C1462.94 87.9954 1463.65 88.8404 1464.07 89.8366V89.8366V86.7541H1469.58V103.551C1469.58 107.593 1466.03 110.104 1460.79 110.104C1455.92 110.104 1452.89 107.907 1452.58 104.843V104.825ZM1464.07 95.2633C1464.07 92.5684 1462.83 90.8703 1460.89 90.8703C1458.94 90.8703 1457.74 92.55 1457.74 95.2633C1457.74 97.9767 1458.92 99.5087 1460.89 99.5087C1462.85 99.5087 1464.07 98.0136 1464.07 95.2818V95.2633ZM1471.66 95.2633C1471.66 89.7258 1475.04 86.4218 1480.26 86.4218C1485.48 86.4218 1488.88 89.7258 1488.88 95.2633C1488.88 100.801 1485.57 104.123 1480.26 104.123C1474.95 104.123 1471.66 100.912 1471.66 95.2818V95.2633ZM1483.33 95.2633C1483.33 92.2177 1482.14 90.4273 1480.26 90.4273C1478.39 90.4273 1477.3 92.2915 1477.3 95.3002C1477.3 98.309 1478.46 100.099 1480.34 100.099C1482.21 100.099 1483.33 98.3828 1483.33 95.3002V95.2633ZM1490.98 82.7302C1490.97 82.1711 1491.12 81.6203 1491.41 81.1475C1491.71 80.6748 1492.14 80.3015 1492.65 80.0749C1493.16 79.8483 1493.73 79.7787 1494.27 79.8748C1494.82 79.9708 1495.33 80.2283 1495.73 80.6146C1496.14 81.0009 1496.42 81.4986 1496.54 82.0446C1496.66 82.5906 1496.61 83.1602 1496.41 83.6814C1496.21 84.2026 1495.86 84.6518 1495.4 84.9721C1494.95 85.2924 1494.4 85.4693 1493.85 85.4804C1493.48 85.5059 1493.11 85.4544 1492.76 85.3293C1492.41 85.2041 1492.09 85.008 1491.82 84.7532C1491.55 84.4984 1491.34 84.1904 1491.19 83.8486C1491.05 83.5068 1490.98 83.1386 1490.98 82.7671V82.7302ZM1490.98 86.791H1496.49V103.736H1490.98V86.791ZM1516.52 95.2633C1516.52 100.801 1514.07 103.957 1509.88 103.957C1508.8 104.026 1507.73 103.763 1506.81 103.201C1505.89 102.64 1505.17 101.809 1504.73 100.819H1504.62V109.162H1499.11V86.7541H1504.62V89.7812H1504.73C1505.15 88.7755 1505.86 87.9223 1506.77 87.3377C1507.69 86.7531 1508.76 86.4656 1509.84 86.5141C1514.07 86.5879 1516.59 89.7628 1516.59 95.3002L1516.52 95.2633ZM1511 95.2633C1511 92.5684 1509.77 90.8518 1507.84 90.8518C1505.91 90.8518 1504.68 92.5869 1504.66 95.2633C1504.64 97.9398 1505.91 99.6564 1507.84 99.6564C1509.77 99.6564 1511 97.9767 1511 95.3002V95.2633ZM1525.98 86.4034C1530.56 86.4034 1533.34 88.5814 1533.47 92.07H1528.45C1528.45 90.8703 1527.45 90.1135 1525.93 90.1135C1524.4 90.1135 1523.72 90.7041 1523.72 91.5717C1523.72 92.4392 1524.33 92.7161 1525.56 92.9745L1529.09 93.6944C1532.45 94.4142 1533.89 95.7802 1533.89 98.3459C1533.89 101.853 1530.71 104.105 1526.02 104.105C1521.33 104.105 1518.26 101.853 1518.02 98.4012H1523.34C1523.5 99.6564 1524.49 100.395 1526.11 100.395C1527.73 100.395 1528.46 99.8594 1528.46 98.9734C1528.46 98.0874 1527.95 97.9029 1526.63 97.626L1523.45 96.943C1520.16 96.2601 1518.43 94.5065 1518.43 91.9224C1518.46 88.5999 1521.42 86.4403 1525.98 86.4403V86.4034ZM1552.29 103.699H1546.98V100.542H1546.87C1546.58 101.602 1545.93 102.53 1545.04 103.171C1544.15 103.812 1543.07 104.129 1541.98 104.068C1541.14 104.116 1540.3 103.982 1539.52 103.677C1538.74 103.372 1538.03 102.901 1537.44 102.297C1536.86 101.694 1536.41 100.971 1536.12 100.178C1535.84 99.3846 1535.73 98.5396 1535.8 97.6998V86.7541H1541.32V96.4262C1541.32 98.4382 1542.34 99.5087 1544.05 99.5087C1544.46 99.5096 1544.85 99.4243 1545.22 99.2587C1545.58 99.0932 1545.91 98.8511 1546.17 98.5487C1546.44 98.2463 1546.63 97.8906 1546.75 97.5054C1546.87 97.1203 1546.9 96.7145 1546.85 96.3155V86.7541H1552.36L1552.29 103.699ZM1554.96 86.7541H1560.29V90.0212H1560.4C1560.69 88.9755 1561.32 88.0567 1562.19 87.4088C1563.06 86.7608 1564.11 86.4202 1565.2 86.4403C1566.3 86.3518 1567.39 86.6825 1568.26 87.3665C1569.13 88.0505 1569.71 89.0378 1569.88 90.1319H1569.99C1570.33 89.0262 1571.02 88.0633 1571.96 87.3949C1572.9 86.7265 1574.03 86.3907 1575.18 86.4403C1575.93 86.415 1576.68 86.5484 1577.37 86.8319C1578.07 87.1153 1578.69 87.5425 1579.21 88.0857C1579.73 88.6288 1580.13 89.2757 1580.39 89.9844C1580.64 90.6931 1580.75 91.4478 1580.69 92.1993V103.736H1575.18V93.6759C1575.18 91.8301 1574.35 90.981 1572.81 90.981C1572.46 90.9781 1572.12 91.0493 1571.81 91.19C1571.49 91.3306 1571.21 91.5374 1570.98 91.7963C1570.75 92.0552 1570.58 92.3603 1570.48 92.6909C1570.38 93.0215 1570.35 93.37 1570.4 93.7128V103.736H1565.16V93.6021C1565.16 91.9039 1564.33 90.981 1562.82 90.981C1562.48 90.9811 1562.13 91.0554 1561.81 91.1989C1561.5 91.3424 1561.21 91.5518 1560.98 91.8135C1560.75 92.0751 1560.58 92.383 1560.47 92.7167C1560.37 93.0505 1560.34 93.4026 1560.38 93.7498V103.736H1554.86L1554.96 86.7541Z" fill="#FEFEFE"/>
<path d="M1410.16 82.361C1409.23 80.2131 1407.99 78.2114 1406.49 76.4174C1404.26 73.6862 1401.49 71.4584 1398.35 69.8806C1395.21 68.3028 1391.77 67.4108 1388.26 67.2633C1384.75 67.1158 1381.25 67.7162 1377.99 69.0248C1374.73 70.3335 1371.78 72.3209 1369.34 74.8561C1366.9 77.3913 1365.02 80.4168 1363.83 83.7337C1362.63 87.0505 1362.15 90.5833 1362.42 94.0997C1362.68 97.6161 1363.69 101.036 1365.36 104.135C1367.04 107.234 1369.35 109.941 1372.15 112.079C1373.94 113.478 1375.92 114.615 1378.03 115.457C1380.99 116.674 1384.15 117.301 1387.35 117.302C1393.95 117.288 1400.27 114.647 1404.93 109.959C1409.6 105.27 1412.22 98.9169 1412.22 92.2915C1412.23 88.874 1411.53 85.4926 1410.16 82.361V82.361ZM1387.33 72.3381C1390.2 72.3378 1393.04 72.9678 1395.64 74.1839V74.1839C1395.01 74.4593 1394.34 74.6516 1393.65 74.7561C1391.41 75.083 1389.32 76.1314 1387.72 77.7449C1386.11 79.3583 1385.06 81.4502 1384.74 83.7084C1384.6 84.9749 1384.02 86.1531 1383.11 87.0442C1382.21 87.9353 1381.02 88.4847 1379.76 88.5999C1377.51 88.9267 1375.42 89.9751 1373.82 91.5886C1372.21 93.202 1371.17 95.2939 1370.84 97.5521C1370.73 98.7563 1370.22 99.8879 1369.39 100.764V100.764C1367.95 97.7243 1367.31 94.3702 1367.52 91.0137C1367.72 87.6572 1368.77 84.4074 1370.56 81.5668C1372.35 78.7261 1374.83 76.387 1377.77 74.7669C1380.7 73.1469 1384 72.2987 1387.35 72.3012L1387.33 72.3381ZM1372.13 105.212C1372.35 105.009 1372.57 104.825 1372.79 104.603C1374.42 103.011 1375.47 100.909 1375.77 98.6412C1375.89 97.3661 1376.45 96.1752 1377.37 95.2817C1378.25 94.3628 1379.43 93.7983 1380.69 93.6943C1382.94 93.3674 1385.03 92.319 1386.63 90.7056C1388.24 89.0922 1389.28 87.0003 1389.61 84.7421C1389.69 83.4085 1390.26 82.1521 1391.21 81.2165C1392.11 80.3155 1393.31 79.7715 1394.57 79.6845C1396.64 79.3991 1398.57 78.4768 1400.09 77.045C1401.82 78.4885 1403.29 80.2251 1404.43 82.1764C1404.36 82.2712 1404.28 82.3578 1404.19 82.4348C1403.31 83.3618 1402.13 83.9387 1400.86 84.0591C1398.61 84.3803 1396.52 85.4268 1394.92 87.0413C1393.31 88.6558 1392.26 90.7509 1391.94 93.0114C1391.82 94.2821 1391.25 95.4688 1390.35 96.3703C1389.45 97.2719 1388.27 97.8328 1387 97.9582C1384.74 98.2826 1382.65 99.3289 1381.04 100.942C1379.42 102.554 1378.37 104.648 1378.03 106.91C1377.93 107.813 1377.62 108.679 1377.13 109.439C1375.24 108.315 1373.55 106.887 1372.13 105.212V105.212ZM1387.33 112.337C1385.46 112.339 1383.61 112.078 1381.82 111.562C1382.43 110.414 1382.83 109.163 1382.99 107.87C1383.12 106.602 1383.68 105.418 1384.58 104.517C1385.48 103.616 1386.66 103.053 1387.92 102.923C1390.17 102.6 1392.26 101.553 1393.87 99.9398C1395.48 98.326 1396.53 96.2321 1396.85 93.9712C1396.98 92.7033 1397.54 91.5189 1398.44 90.6177C1399.34 89.7165 1400.52 89.1538 1401.78 89.0244C1403.48 88.803 1405.09 88.1694 1406.49 87.1786C1407.26 90.128 1407.35 93.2165 1406.75 96.2072C1406.16 99.1978 1404.88 102.011 1403.03 104.431C1401.18 106.851 1398.81 108.814 1396.09 110.168C1393.36 111.523 1390.37 112.233 1387.33 112.245V112.337Z" fill="#FEFEFE"/>
<path d="M440.758 81.6965H446.659V105.692H440.758V81.6965ZM449.012 96.6662C449.012 90.7226 452.689 87.1602 458.204 87.1602C463.719 87.1602 467.396 90.7226 467.396 96.6662C467.396 102.61 463.848 106.209 458.204 106.209C452.56 106.209 449.012 102.739 449.012 96.6662ZM461.55 96.6662C461.55 93.3991 460.282 91.4794 458.259 91.4794C456.237 91.4794 454.987 93.3252 454.987 96.6662C454.987 100.007 456.237 101.835 458.259 101.835C460.282 101.835 461.587 100.007 461.587 96.6846L461.55 96.6662ZM469.749 106.929H475.448C475.708 107.545 476.161 108.059 476.739 108.392C477.316 108.726 477.986 108.86 478.647 108.775C480.908 108.775 482.085 107.557 482.085 105.748V102.425H482.103C481.616 103.46 480.829 104.322 479.844 104.899C478.86 105.475 477.725 105.739 476.588 105.655C472.268 105.655 469.4 102.351 469.4 96.6662C469.4 90.981 472.139 87.437 476.754 87.437C477.919 87.3744 479.076 87.6763 480.064 88.3011C481.051 88.9259 481.822 89.8428 482.269 90.9256H482.103V87.5847H487.95V105.563C487.95 109.901 484.126 112.614 478.5 112.614C473.389 112.596 470.117 110.251 469.786 106.947L469.749 106.929ZM482.103 96.6662C482.103 93.7682 480.78 91.9409 478.684 91.9409C476.588 91.9409 475.301 93.7867 475.301 96.6662C475.301 99.5457 476.57 101.244 478.684 101.244C480.798 101.244 482.103 99.6749 482.103 96.6662ZM490.284 96.6662C490.284 90.7226 493.961 87.1602 499.476 87.1602C504.991 87.1602 508.668 90.7226 508.668 96.6662C508.668 102.61 505.102 106.209 499.476 106.209C493.851 106.209 490.321 102.739 490.321 96.6662H490.284ZM502.822 96.6662C502.822 93.3991 501.535 91.4794 499.531 91.4794C497.528 91.4794 496.259 93.3252 496.259 96.6662C496.259 100.007 497.509 101.835 499.531 101.835C501.554 101.835 502.859 100.007 502.859 96.6846L502.822 96.6662ZM511.058 83.2101C511.033 82.6065 511.187 82.0091 511.503 81.4946C511.818 80.98 512.279 80.572 512.827 80.3229C513.376 80.0739 513.985 79.9952 514.578 80.097C515.172 80.1988 515.721 80.4764 516.155 80.8942C516.59 81.3119 516.89 81.8507 517.017 82.4412C517.144 83.0316 517.093 83.6468 516.869 84.2075C516.645 84.7682 516.259 85.2488 515.761 85.5875C515.263 85.9262 514.675 86.1075 514.073 86.108C513.689 86.1178 513.306 86.0509 512.947 85.911C512.589 85.7712 512.262 85.5612 511.985 85.2933C511.708 85.0254 511.486 84.705 511.333 84.3505C511.181 83.9961 511.1 83.6147 511.095 83.2285L511.058 83.2101ZM511.058 87.5662H517.033V105.766H511.15L511.058 87.5662ZM538.524 96.6662C538.524 102.591 535.877 106.025 531.372 106.025C530.219 106.096 529.072 105.81 528.086 105.206C527.1 104.602 526.322 103.709 525.857 102.647H525.747V111.617H519.846V87.6216H525.71V90.8703H525.821C526.269 89.7873 527.039 88.8694 528.026 88.2418C529.013 87.6143 530.169 87.3074 531.336 87.3632C535.968 87.3263 538.634 90.7411 538.634 96.6846L538.524 96.6662ZM532.512 96.6662C532.512 93.7867 531.17 91.9224 529.093 91.9224C527.015 91.9224 525.71 93.7682 525.692 96.6662C525.673 99.5641 527.015 101.392 529.093 101.392C531.17 101.392 532.623 99.6749 532.623 96.6846L532.512 96.6662ZM548.598 87.1417C553.544 87.1417 556.614 89.4859 556.65 93.2514H551.264C551.264 91.9409 550.179 91.1287 548.562 91.1287C546.944 91.1287 546.172 91.7563 546.172 92.6976C546.172 93.639 546.852 93.9344 548.212 94.2112L551.999 94.9865C555.676 95.7617 557.147 97.2384 557.147 99.9887C557.147 103.68 553.746 106.191 548.69 106.191C543.635 106.191 540.344 103.754 540.105 100.044H545.822C545.988 101.392 547.054 102.185 548.782 102.185C550.51 102.185 551.319 101.631 551.319 100.653C551.319 99.6749 550.768 99.5088 549.352 99.2134L545.933 98.4936C542.384 97.7368 540.528 95.8725 540.528 93.0853C540.638 89.4674 543.727 87.1602 548.709 87.1602L548.598 87.1417ZM576.91 105.748H571.192V102.333H571.082C570.762 103.472 570.065 104.467 569.106 105.155C568.147 105.843 566.983 106.182 565.806 106.117C564.917 106.146 564.033 105.986 563.21 105.648C562.387 105.309 561.645 104.8 561.032 104.153C560.419 103.506 559.95 102.737 559.654 101.895C559.358 101.053 559.243 100.158 559.316 99.2688V87.5847H565.217V97.9952C565.217 100.136 566.339 101.299 568.177 101.299C568.609 101.296 569.034 101.2 569.425 101.017C569.816 100.835 570.164 100.57 570.445 100.241C570.725 99.9122 570.932 99.5267 571.052 99.1106C571.171 98.6945 571.2 98.2575 571.137 97.8291V87.5847H577.02L576.91 105.748ZM579.759 87.5662H585.495V91.0733H585.624C585.941 89.9498 586.62 88.9636 587.554 88.2689C588.489 87.5741 589.627 87.2102 590.79 87.234C591.957 87.1321 593.12 87.471 594.051 88.1845C594.983 88.8979 595.616 89.9346 595.827 91.0918H596.084C596.452 89.9284 597.191 88.9195 598.189 88.2218C599.186 87.5242 600.385 87.1769 601.599 87.234C602.406 87.2031 603.211 87.3438 603.96 87.6466C604.709 87.9495 605.386 88.4078 605.947 88.9915C606.507 89.5752 606.939 90.2712 607.213 91.034C607.487 91.7967 607.597 92.6089 607.537 93.4175V105.766H601.599V94.9311C601.599 93.0853 600.735 92.0516 599.062 92.0516C598.691 92.0455 598.323 92.12 597.984 92.27C597.644 92.4201 597.341 92.6421 597.094 92.9209C596.848 93.1996 596.665 93.5286 596.557 93.8851C596.449 94.2416 596.42 94.6173 596.47 94.9865V105.766H590.845V94.8757C590.845 93.0299 589.944 92.0516 588.326 92.0516C587.951 92.0486 587.58 92.1262 587.237 92.2791C586.895 92.432 586.589 92.6567 586.34 92.9382C586.091 93.2197 585.904 93.5514 585.794 93.911C585.683 94.2706 585.65 94.6499 585.697 95.0234V105.766H579.796L579.759 87.5662Z" fill="#FEFEFE"/>
<path d="M429.084 83.2655C429.084 79.5917 427.979 76.0035 425.914 72.9709C423.849 69.9383 420.919 67.6027 417.509 66.27C414.1 64.9373 410.369 64.6697 406.805 65.5021C403.241 66.3346 400.011 68.2283 397.537 70.9353H374.594V119.554H423.036V96.8323C424.937 95.1249 426.458 93.0341 427.5 90.6964C428.543 88.3587 429.082 85.8267 429.084 83.2655V83.2655ZM419.763 83.2655C419.767 85.0259 419.25 86.7478 418.279 88.2133C417.307 89.6789 415.925 90.8221 414.306 91.4983C412.687 92.1745 410.905 92.3533 409.185 92.0121C407.465 91.6709 405.884 90.825 404.643 89.5815C403.402 88.338 402.556 86.7528 402.213 85.0264C401.869 83.3001 402.044 81.5103 402.714 79.8835C403.384 78.2567 404.52 76.8661 405.977 75.8877C407.435 74.9093 409.149 74.387 410.902 74.387C413.249 74.387 415.5 75.3218 417.161 76.9863C418.823 78.6508 419.758 80.9091 419.763 83.2655V83.2655ZM413.715 110.196H383.914V80.2937H392.996C392.821 81.2747 392.728 82.2688 392.72 83.2655C392.725 88.1056 394.642 92.746 398.051 96.1685C401.46 99.5909 406.082 101.516 410.902 101.521C411.845 101.516 412.785 101.435 413.715 101.281V110.196Z" fill="#FEFEFE"/>
<path fill-rule="evenodd" clip-rule="evenodd" d="M1000.51 55.4617V120.902H1292.04V55.4617H1000.51ZM1288.36 117.21H1139.45V59.1533H1288.36V117.21ZM1016 99.1451V77.3883H1023.48V93.3511H1036.68V99.1451H1016ZM1051.61 99.4774C1061.85 99.4774 1066.16 95.0419 1066.16 88.1145C1066.16 81.0745 1061.31 76.89 1051.61 76.89C1042.06 76.89 1037.04 81.4344 1037.04 88.1145C1037.04 95.6528 1042.31 99.4774 1051.61 99.4774ZM1051.58 82.5437C1057.35 82.5437 1058.65 85.0596 1058.65 88.1975C1058.65 91.5237 1057.08 93.9067 1051.61 93.9067C1046.17 93.9067 1044.6 91.6622 1044.6 88.1975C1044.6 84.7883 1046.31 82.5437 1051.58 82.5437ZM1089.29 99.1451L1089.1 97.0372C1086.6 98.8299 1083.55 99.6927 1080.49 99.4774C1075.88 99.4774 1072.04 98.0912 1069.89 95.2929C1068.47 93.2499 1067.75 90.7976 1067.85 88.3083C1067.76 85.8712 1068.51 83.4782 1069.95 81.5174C1072.13 78.8022 1076.08 77.0007 1081.96 77.0007C1088.72 77.0007 1092.7 79.0791 1094.41 82.5714C1094.77 83.3938 1094.99 84.2763 1095.04 85.1759H1087.89C1087.71 84.6292 1087.37 84.1474 1086.92 83.7897C1085.5 82.841 1083.79 82.4021 1082.09 82.5437C1081.09 82.4221 1080.08 82.5148 1079.11 82.8158C1078.15 83.1168 1077.27 83.6193 1076.51 84.2899C1075.66 85.4657 1075.26 86.9131 1075.38 88.3636C1075.28 89.7475 1075.65 91.1244 1076.43 92.2713C1077.19 92.9824 1078.09 93.5211 1079.08 93.8511C1080.07 94.181 1081.11 94.2944 1082.14 94.1835C1084.2 94.3511 1086.23 93.7155 1087.83 92.4097C1088.17 91.9792 1088.41 91.4731 1088.52 90.933H1080.82V86.2575H1095.23V99.1451H1089.29ZM1111.9 99.4774C1122.14 99.4774 1126.45 95.0419 1126.45 88.1145C1126.45 81.0745 1121.59 76.89 1111.9 76.89C1102.35 76.89 1097.33 81.4344 1097.33 88.1145C1097.33 95.6528 1102.6 99.4774 1111.9 99.4774ZM1111.87 82.5437C1117.64 82.5437 1118.94 85.0596 1118.94 88.1975C1118.94 91.5237 1117.37 93.9067 1111.9 93.9067C1106.46 93.9067 1104.89 91.6622 1104.89 88.1975C1104.89 84.7883 1106.6 82.5437 1111.87 82.5437Z" fill="#FEFEFE"/>
<path d="M1152.05 99.062V77.3052H1157.38V99.062H1152.05Z" fill="#FEFEFE"/>
<path d="M1184.76 89.9713C1183.41 91.7452 1181.08 92.5555 1177.8 92.5758C1177.11 92.5758 1167.95 92.5481 1167.95 92.5481V99.0621H1162.73V77.3053H1177.81C1179.01 77.177 1180.24 77.3056 1181.39 77.6828C1182.55 78.06 1183.61 78.6772 1184.51 79.4944C1185.7 81.0527 1186.28 82.9955 1186.14 84.9544C1186.26 86.736 1185.77 88.5059 1184.76 89.9713V89.9713ZM1180.48 82.8778C1179.93 82.0472 1178.74 81.5857 1176.73 81.5857H1167.92V88.2086H1176.67C1178.82 88.2086 1179.96 87.7656 1180.48 86.9054C1180.79 86.2994 1180.93 85.6171 1180.87 84.9378C1180.91 84.2294 1180.78 83.5208 1180.48 82.8778V82.8778Z" fill="#FEFEFE"/>
<path d="M1201.52 99.3943C1191.69 99.3943 1188.68 95.7026 1188.68 92.0497H1194.26C1194.26 93.8513 1196.71 95.2098 1201.76 95.2098C1206.79 95.2098 1208.11 94.322 1208.11 92.8804C1208.11 91.2726 1207.12 90.7743 1202.45 90.2482C1201.53 90.1651 1199.03 89.8606 1198.09 89.7221C1191.47 88.9727 1188.93 87.0051 1188.93 83.4851C1188.93 79.7713 1192.65 76.973 1200.74 76.973C1209.52 76.973 1212.89 80.4376 1212.89 84.0407H1207.37C1207.37 82.2115 1205.3 81.1575 1200.42 81.1575C1195.39 81.1575 1194.32 81.8497 1194.32 83.2082C1194.32 84.6221 1195.42 85.0651 1200.75 85.7019C1201.97 85.8699 1204.67 86.1745 1205.41 86.2557C1211.05 86.8371 1213.59 88.8878 1213.59 92.5186C1213.58 96.8434 1209.71 99.3943 1201.52 99.3943Z" fill="#FEFEFE"/>
<path d="M1229.29 99.3666C1222.08 99.3666 1217.39 96.5111 1217.39 90.5066V77.3052H1222.66V90.5805C1222.66 93.3252 1224.9 95.1526 1229.51 95.1526C1233.68 95.1526 1236.16 93.436 1236.16 90.5805V77.3052H1241.38V90.9995C1241.38 96.4576 1237.02 99.3666 1229.29 99.3666Z" fill="#FEFEFE"/>
<path d="M1269.95 99.062V84.539L1263.18 99.062H1258.05L1251.48 84.539V99.062H1246.52V77.3052H1253.24L1260.69 93.879L1268.31 77.3052H1274.93V99.062H1269.95Z" fill="#FEFEFE"/>
</svg>
