<svg width="70" height="70" viewBox="0 0 70 70" fill="none" xmlns="http://www.w3.org/2000/svg">
<g clip-path="url(#clip0_1_10850)">
<path d="M37.5 30.625H32.5C31.837 30.625 31.2011 30.8555 30.7322 31.2657C30.2634 31.6759 30 32.2323 30 32.8125V37.1875C30 37.7677 30.2634 38.3241 30.7322 38.7343C31.2011 39.1445 31.837 39.375 32.5 39.375H37.5C38.163 39.375 38.7989 39.1445 39.2678 38.7343C39.7366 38.3241 40 37.7677 40 37.1875V32.8125C40 32.2323 39.7366 31.6759 39.2678 31.2657C38.7989 30.8555 38.163 30.625 37.5 30.625ZM52.5 30.625H47.5C46.837 30.625 46.2011 30.8555 45.7322 31.2657C45.2634 31.6759 45 32.2323 45 32.8125V37.1875C45 37.7677 45.2634 38.3241 45.7322 38.7343C46.2011 39.1445 46.837 39.375 47.5 39.375H52.5C53.163 39.375 53.7989 39.1445 54.2678 38.7343C54.7366 38.3241 55 37.7677 55 37.1875V32.8125C55 32.2323 54.7366 31.6759 54.2678 31.2657C53.7989 30.8555 53.163 30.625 52.5 30.625ZM67.5 30.625H62.5C61.837 30.625 61.2011 30.8555 60.7322 31.2657C60.2634 31.6759 60 32.2323 60 32.8125V37.1875C60 37.7677 60.2634 38.3241 60.7322 38.7343C61.2011 39.1445 61.837 39.375 62.5 39.375H67.5C68.163 39.375 68.7989 39.1445 69.2678 38.7343C69.7366 38.3241 70 37.7677 70 37.1875V32.8125C70 32.2323 69.7366 31.6759 69.2678 31.2657C68.7989 30.8555 68.163 30.625 67.5 30.625ZM22.5 30.625H17.5C16.837 30.625 16.2011 30.8555 15.7322 31.2657C15.2634 31.6759 15 32.2323 15 32.8125V37.1875C15 37.7677 15.2634 38.3241 15.7322 38.7343C16.2011 39.1445 16.837 39.375 17.5 39.375H22.5C23.163 39.375 23.7989 39.1445 24.2678 38.7343C24.7366 38.3241 25 37.7677 25 37.1875V32.8125C25 32.2323 24.7366 31.6759 24.2678 31.2657C23.7989 30.8555 23.163 30.625 22.5 30.625ZM37.5 56.875H32.5C31.837 56.875 31.2011 57.1055 30.7322 57.5157C30.2634 57.9259 30 58.4823 30 59.0625V63.4375C30 64.0177 30.2634 64.5741 30.7322 64.9843C31.2011 65.3945 31.837 65.625 32.5 65.625H37.5C38.163 65.625 38.7989 65.3945 39.2678 64.9843C39.7366 64.5741 40 64.0177 40 63.4375V59.0625C40 58.4823 39.7366 57.9259 39.2678 57.5157C38.7989 57.1055 38.163 56.875 37.5 56.875ZM52.5 56.875H47.5C46.837 56.875 46.2011 57.1055 45.7322 57.5157C45.2634 57.9259 45 58.4823 45 59.0625V63.4375C45 64.0177 45.2634 64.5741 45.7322 64.9843C46.2011 65.3945 46.837 65.625 47.5 65.625H52.5C53.163 65.625 53.7989 65.3945 54.2678 64.9843C54.7366 64.5741 55 64.0177 55 63.4375V59.0625C55 58.4823 54.7366 57.9259 54.2678 57.5157C53.7989 57.1055 53.163 56.875 52.5 56.875ZM67.5 56.875H62.5C61.837 56.875 61.2011 57.1055 60.7322 57.5157C60.2634 57.9259 60 58.4823 60 59.0625V63.4375C60 64.0177 60.2634 64.5741 60.7322 64.9843C61.2011 65.3945 61.837 65.625 62.5 65.625H67.5C68.163 65.625 68.7989 65.3945 69.2678 64.9843C69.7366 64.5741 70 64.0177 70 63.4375V59.0625C70 58.4823 69.7366 57.9259 69.2678 57.5157C68.7989 57.1055 68.163 56.875 67.5 56.875ZM67.5 43.75H62.5C61.837 43.75 61.2011 43.9805 60.7322 44.3907C60.2634 44.8009 60 45.3573 60 45.9375V50.3125C60 50.8927 60.2634 51.4491 60.7322 51.8593C61.2011 52.2695 61.837 52.5 62.5 52.5H67.5C68.163 52.5 68.7989 52.2695 69.2678 51.8593C69.7366 51.4491 70 50.8927 70 50.3125V45.9375C70 45.3573 69.7366 44.8009 69.2678 44.3907C68.7989 43.9805 68.163 43.75 67.5 43.75ZM67.5 17.5H62.5C61.837 17.5 61.2011 17.7305 60.7322 18.1407C60.2634 18.5509 60 19.1073 60 19.6875V24.0625C60 24.6427 60.2634 25.1991 60.7322 25.6093C61.2011 26.0195 61.837 26.25 62.5 26.25H67.5C68.163 26.25 68.7989 26.0195 69.2678 25.6093C69.7366 25.1991 70 24.6427 70 24.0625V19.6875C70 19.1073 69.7366 18.5509 69.2678 18.1407C68.7989 17.7305 68.163 17.5 67.5 17.5ZM37.5 43.75H32.5C31.837 43.75 31.2011 43.9805 30.7322 44.3907C30.2634 44.8009 30 45.3573 30 45.9375V50.3125C30 50.8927 30.2634 51.4491 30.7322 51.8593C31.2011 52.2695 31.837 52.5 32.5 52.5H37.5C38.163 52.5 38.7989 52.2695 39.2678 51.8593C39.7366 51.4491 40 50.8927 40 50.3125V45.9375C40 45.3573 39.7366 44.8009 39.2678 44.3907C38.7989 43.9805 38.163 43.75 37.5 43.75ZM37.5 17.5H32.5C31.837 17.5 31.2011 17.7305 30.7322 18.1407C30.2634 18.5509 30 19.1073 30 19.6875V24.0625C30 24.6427 30.2634 25.1991 30.7322 25.6093C31.2011 26.0195 31.837 26.25 32.5 26.25H37.5C38.163 26.25 38.7989 26.0195 39.2678 25.6093C39.7366 25.1991 40 24.6427 40 24.0625V19.6875C40 19.1073 39.7366 18.5509 39.2678 18.1407C38.7989 17.7305 38.163 17.5 37.5 17.5ZM22.5 56.875H17.5C16.837 56.875 16.2011 57.1055 15.7322 57.5157C15.2634 57.9259 15 58.4823 15 59.0625V63.4375C15 64.0177 15.2634 64.5741 15.7322 64.9843C16.2011 65.3945 16.837 65.625 17.5 65.625H22.5C23.163 65.625 23.7989 65.3945 24.2678 64.9843C24.7366 64.5741 25 64.0177 25 63.4375V59.0625C25 58.4823 24.7366 57.9259 24.2678 57.5157C23.7989 57.1055 23.163 56.875 22.5 56.875ZM37.5 4.375H32.5C31.837 4.375 31.2011 4.60547 30.7322 5.0157C30.2634 5.42594 30 5.98234 30 6.5625V10.9375C30 11.5177 30.2634 12.0741 30.7322 12.4843C31.2011 12.8945 31.837 13.125 32.5 13.125H37.5C38.163 13.125 38.7989 12.8945 39.2678 12.4843C39.7366 12.0741 40 11.5177 40 10.9375V6.5625C40 5.98234 39.7366 5.42594 39.2678 5.0157C38.7989 4.60547 38.163 4.375 37.5 4.375V4.375ZM52.5 4.375H47.5C46.837 4.375 46.2011 4.60547 45.7322 5.0157C45.2634 5.42594 45 5.98234 45 6.5625V10.9375C45 11.5177 45.2634 12.0741 45.7322 12.4843C46.2011 12.8945 46.837 13.125 47.5 13.125H52.5C53.163 13.125 53.7989 12.8945 54.2678 12.4843C54.7366 12.0741 55 11.5177 55 10.9375V6.5625C55 5.98234 54.7366 5.42594 54.2678 5.0157C53.7989 4.60547 53.163 4.375 52.5 4.375V4.375ZM67.5 4.375H62.5C61.837 4.375 61.2011 4.60547 60.7322 5.0157C60.2634 5.42594 60 5.98234 60 6.5625V10.9375C60 11.5177 60.2634 12.0741 60.7322 12.4843C61.2011 12.8945 61.837 13.125 62.5 13.125H67.5C68.163 13.125 68.7989 12.8945 69.2678 12.4843C69.7366 12.0741 70 11.5177 70 10.9375V6.5625C70 5.98234 69.7366 5.42594 69.2678 5.0157C68.7989 4.60547 68.163 4.375 67.5 4.375V4.375ZM7.5 30.625H2.5C1.83696 30.625 1.20107 30.8555 0.732233 31.2657C0.263392 31.6759 0 32.2323 0 32.8125L0 37.1875C0 37.7677 0.263392 38.3241 0.732233 38.7343C1.20107 39.1445 1.83696 39.375 2.5 39.375H7.5C8.16304 39.375 8.79893 39.1445 9.26777 38.7343C9.73661 38.3241 10 37.7677 10 37.1875V32.8125C10 32.2323 9.73661 31.6759 9.26777 31.2657C8.79893 30.8555 8.16304 30.625 7.5 30.625ZM7.5 56.875H2.5C1.83696 56.875 1.20107 57.1055 0.732233 57.5157C0.263392 57.9259 0 58.4823 0 59.0625L0 63.4375C0 64.0177 0.263392 64.5741 0.732233 64.9843C1.20107 65.3945 1.83696 65.625 2.5 65.625H7.5C8.16304 65.625 8.79893 65.3945 9.26777 64.9843C9.73661 64.5741 10 64.0177 10 63.4375V59.0625C10 58.4823 9.73661 57.9259 9.26777 57.5157C8.79893 57.1055 8.16304 56.875 7.5 56.875ZM7.5 43.75H2.5C1.83696 43.75 1.20107 43.9805 0.732233 44.3907C0.263392 44.8009 0 45.3573 0 45.9375L0 50.3125C0 50.8927 0.263392 51.4491 0.732233 51.8593C1.20107 52.2695 1.83696 52.5 2.5 52.5H7.5C8.16304 52.5 8.79893 52.2695 9.26777 51.8593C9.73661 51.4491 10 50.8927 10 50.3125V45.9375C10 45.3573 9.73661 44.8009 9.26777 44.3907C8.79893 43.9805 8.16304 43.75 7.5 43.75ZM7.5 17.5H2.5C1.83696 17.5 1.20107 17.7305 0.732233 18.1407C0.263392 18.5509 0 19.1073 0 19.6875L0 24.0625C0 24.6427 0.263392 25.1991 0.732233 25.6093C1.20107 26.0195 1.83696 26.25 2.5 26.25H7.5C8.16304 26.25 8.79893 26.0195 9.26777 25.6093C9.73661 25.1991 10 24.6427 10 24.0625V19.6875C10 19.1073 9.73661 18.5509 9.26777 18.1407C8.79893 17.7305 8.16304 17.5 7.5 17.5ZM7.5 4.375H2.5C1.83696 4.375 1.20107 4.60547 0.732233 5.0157C0.263392 5.42594 0 5.98234 0 6.5625L0 10.9375C0 11.5177 0.263392 12.0741 0.732233 12.4843C1.20107 12.8945 1.83696 13.125 2.5 13.125H7.5C8.16304 13.125 8.79893 12.8945 9.26777 12.4843C9.73661 12.0741 10 11.5177 10 10.9375V6.5625C10 5.98234 9.73661 5.42594 9.26777 5.0157C8.79893 4.60547 8.16304 4.375 7.5 4.375V4.375ZM22.5 4.375H17.5C16.837 4.375 16.2011 4.60547 15.7322 5.0157C15.2634 5.42594 15 5.98234 15 6.5625V10.9375C15 11.5177 15.2634 12.0741 15.7322 12.4843C16.2011 12.8945 16.837 13.125 17.5 13.125H22.5C23.163 13.125 23.7989 12.8945 24.2678 12.4843C24.7366 12.0741 25 11.5177 25 10.9375V6.5625C25 5.98234 24.7366 5.42594 24.2678 5.0157C23.7989 4.60547 23.163 4.375 22.5 4.375V4.375Z" fill="#FF5E14"/>
</g>
<defs>
<clipPath id="clip0_1_10850">
<rect width="70" height="70" fill="white"/>
</clipPath>
</defs>
</svg>
