<svg width="40" height="35" viewBox="0 0 40 35" fill="none" xmlns="http://www.w3.org/2000/svg">
<g clip-path="url(#clip0_1_9767)">
<path d="M39.1373 16.502C35.4302 9.26885 28.0911 4.375 19.6877 4.375C11.2843 4.375 3.94318 9.27227 0.238097 16.5026C0.0817198 16.812 0.000244141 17.1537 0.000244141 17.5003C0.000244141 17.847 0.0817198 18.1887 0.238097 18.498C3.94523 25.7312 11.2843 30.625 19.6877 30.625C28.0911 30.625 35.4322 25.7277 39.1373 18.4974C39.2937 18.188 39.3752 17.8463 39.3752 17.4997C39.3752 17.153 39.2937 16.8113 39.1373 16.502V16.502ZM19.6877 27.3438C17.7408 27.3438 15.8376 26.7664 14.2188 25.6848C12.6 24.6031 11.3383 23.0658 10.5933 21.267C9.84822 19.4683 9.65328 17.4891 10.0331 15.5796C10.4129 13.6701 11.3505 11.9161 12.7271 10.5394C14.1038 9.16274 15.8578 8.22522 17.7673 7.8454C19.6768 7.46557 21.656 7.66051 23.4548 8.40556C25.2535 9.15061 26.7908 10.4123 27.8725 12.0311C28.9541 13.6499 29.5315 15.5531 29.5315 17.5C29.5321 18.7929 29.2779 20.0732 28.7834 21.2678C28.289 22.4624 27.5639 23.5478 26.6497 24.462C25.7355 25.3762 24.6501 26.1012 23.4555 26.5957C22.2609 27.0902 20.9806 27.3444 19.6877 27.3438V27.3438ZM19.6877 10.9375C19.102 10.9457 18.52 11.0328 17.9575 11.1966C18.4212 11.8266 18.6436 12.602 18.5846 13.382C18.5256 14.162 18.189 14.8951 17.6359 15.4482C17.0828 16.0013 16.3497 16.3379 15.5697 16.3969C14.7897 16.4559 14.0143 16.2335 13.3843 15.7698C13.0255 17.0916 13.0903 18.4926 13.5695 19.7757C14.0486 21.0587 14.9181 22.1592 16.0555 22.9222C17.1929 23.6853 18.5409 24.0724 19.9099 24.0291C21.2788 23.9859 22.5997 23.5145 23.6867 22.6812C24.7736 21.8479 25.5719 20.6947 25.9691 19.384C26.3664 18.0732 26.3426 16.6709 25.9011 15.3744C25.4596 14.0779 24.6227 12.9525 23.5081 12.1566C22.3935 11.3606 21.0573 10.9343 19.6877 10.9375V10.9375Z" fill="#00235A"/>
</g>
<defs>
<clipPath id="clip0_1_9767">
<rect width="39.375" height="35" fill="white"/>
</clipPath>
</defs>
</svg>
