<svg width="31" height="25" viewBox="0 0 31 25" fill="none" xmlns="http://www.w3.org/2000/svg">
<g clip-path="url(#clip0_1_10073)">
<path d="M12.3071 11.5816C13.994 10.8394 14.8746 9.7164 14.8746 7.96835C14.8746 4.52109 12.0843 3.68124 8.8643 3.68124H0V20.9859H9.11363C12.5299 20.9859 15.7393 19.4771 15.7393 15.9615C15.7393 13.7887 14.62 12.1822 12.3071 11.5816V11.5816ZM4.13243 6.63534H8.01023C9.50088 6.63534 10.843 7.02108 10.843 8.61288C10.843 10.0826 9.79795 10.6734 8.32321 10.6734H4.13243V6.63534V6.63534ZM8.55132 18.0465H4.13243V13.2808H8.6362C10.4557 13.2808 11.6069 13.9791 11.6069 15.7515C11.6069 17.4996 10.2329 18.0465 8.55132 18.0465V18.0465ZM27.569 6.29355H19.946V4.58945H27.569V6.29355V6.29355ZM30.5556 14.9019C30.5556 11.1959 28.2003 8.10507 23.9299 8.10507C19.7816 8.10507 16.9647 10.9762 16.9647 14.7359C16.9647 18.6373 19.633 21.3131 23.9299 21.3131C27.1817 21.3131 29.2877 19.9654 30.301 17.0992H27.0014C26.646 18.1685 25.1818 18.7349 24.0466 18.7349C21.8557 18.7349 20.7046 17.5533 20.7046 15.5465H30.5238C30.5397 15.3414 30.5556 15.1217 30.5556 14.9019ZM20.7099 13.3785C20.8319 11.733 22.0202 10.7027 23.8132 10.7027C25.6911 10.7027 26.6353 11.7183 26.7945 13.3785H20.7099Z" fill="#FEFEFE"/>
</g>
<defs>
<clipPath id="clip0_1_10073">
<rect width="30.5556" height="25" fill="white"/>
</clipPath>
</defs>
</svg>
