<svg width="20" height="20" viewBox="0 0 20 20" fill="none" xmlns="http://www.w3.org/2000/svg">
<path d="M15.131 14.0685L14.1419 15.0468C13.4128 15.7624 12.4669 16.6823 11.3037 17.8069C10.5768 18.5097 9.42363 18.5096 8.69687 17.8067L5.78762 14.9768C5.42199 14.6178 5.11593 14.3151 4.8694 14.0685C2.03572 11.2349 2.03572 6.64057 4.8694 3.8069C7.70307 0.973222 12.2974 0.973222 15.131 3.8069C17.9647 6.64057 17.9647 11.2349 15.131 14.0685ZM12.0837 9.16664C12.0837 8.01595 11.1509 7.08314 10.0002 7.08314C8.84954 7.08314 7.91672 8.01595 7.91672 9.16664C7.91672 10.3173 8.84954 11.2501 10.0002 11.2501C11.1509 11.2501 12.0837 10.3173 12.0837 9.16664Z" fill="#FF5E14"/>
</svg>
