<svg width="23" height="25" viewBox="0 0 23 25" fill="none" xmlns="http://www.w3.org/2000/svg">
<g clip-path="url(#clip0_1_10069)">
<path d="M20.561 7.40806C20.5755 7.63013 20.5755 7.85225 20.5755 8.07432C20.5755 14.8478 15.8497 22.6523 7.21235 22.6523C4.55133 22.6523 2.07937 21.8116 0 20.3522C0.37808 20.3998 0.741569 20.4157 1.1342 20.4157C3.32985 20.4157 5.35108 19.6067 6.96514 18.2266C4.90032 18.179 3.16993 16.7038 2.57374 14.6733C2.86458 14.7209 3.15538 14.7526 3.46077 14.7526C3.88245 14.7526 4.30417 14.6891 4.69675 14.5781C2.54469 14.1022 0.930586 12.04 0.930586 9.54957V9.48614C1.55583 9.86685 2.28294 10.1048 3.05356 10.1365C1.78848 9.21641 0.95968 7.646 0.95968 5.86934C0.95968 4.91758 1.19229 4.04512 1.59947 3.2837C3.9115 6.39283 7.38682 8.42325 11.2838 8.64537C11.2111 8.26465 11.1674 7.86812 11.1674 7.47154C11.1674 4.64791 13.2614 2.34781 15.8642 2.34781C17.2165 2.34781 18.4379 2.96646 19.2959 3.96583C20.3573 3.74376 21.3752 3.31544 22.2768 2.72852C21.9278 3.91827 21.1862 4.91763 20.212 5.55211C21.1571 5.44112 22.0732 5.15552 22.9166 4.75899C22.2769 5.77418 21.4771 6.67833 20.561 7.40806V7.40806Z" fill="#FEFEFE"/>
</g>
<defs>
<clipPath id="clip0_1_10069">
<rect width="22.9167" height="25" fill="white"/>
</clipPath>
</defs>
</svg>
